<?xml version="1.0" encoding="utf-8"?>
<!-- Generator: Adobe Illustrator 18.0.0, SVG Export Plug-In . SVG Version: 6.00 Build 0)  -->
<!DOCTYPE svg PUBLIC "-//W3C//DTD SVG 1.1//EN" "http://www.w3.org/Graphics/SVG/1.1/DTD/svg11.dtd">
<svg version="1.1" id="Layer_1" xmlns="http://www.w3.org/2000/svg" xmlns:xlink="http://www.w3.org/1999/xlink" x="0px" y="0px"
	 viewBox="0 0 273.2 480.4" enable-background="new 0 0 273.2 480.4" xml:space="preserve">
<g>
	<path fill="#D4D3C9" d="M172.4,373.2c0,0,82.4-25,19.4,79.9c0,0,54.3,5.5,46.1,16.9c-8.2,11.3-37.5,4.7-48.4,3
		c-11-1.7-44.6-7.4-44.6-7.4L172.4,373.2z"/>
	<path fill="#D4D3C9" d="M95.8,373.2c0,0-82.4-25-19.4,79.9c0,0-54.3,5.5-46.1,16.9c8.2,11.3,37.5,4.7,48.4,3s44.6-7.4,44.6-7.4
		L95.8,373.2z"/>
	<path fill="#D4D3C9" d="M106,177.2c-95.2,175.9-12.5,282.2,28.6,282.2s127-119.2,35.9-286.4"/>
	<polygon fill="#F8F8EC" points="73.1,247.8 115.1,268.5 115.5,460.8 89.4,461.7 	"/>
	<polygon fill="#F8F8EC" points="164.8,271.8 199.3,253.2 177.4,462.2 151.7,460 	"/>
	<path fill="#F8F8EC" d="M203.2,467.9c-9.4,24.2-15.8-1.4-15.8-1.4s-3.1,14-12,14c-9.4,0-12.5-14.5-12.5-14.5s-3.7,23.9-14.8,3.3
		c-5.6-10.5,5.6-21.1,27.2-21.1S207.5,456.8,203.2,467.9z"/>
	<path fill="#F8F8EC" d="M124.6,468.9c-9.4,24.2-15.8-1.4-15.8-1.4s-3.1,14-12,14c-9.4,0-12.5-14.5-12.5-14.5s-3.7,23.9-14.8,3.3
		c-5.6-10.5,5.6-21.1,27.2-21.1S128.9,457.8,124.6,468.9z"/>
	<g>
		<path fill="#EFEFE1" d="M136.1,194.9"/>
		<path fill="#EFEFE1" d="M136.1,194.9"/>
	</g>
	<path fill="#EFEFE1" d="M134.2,227.6"/>
	<path fill="#010101" d="M134.4,191.6"/>
	<path fill="#F8F8EC" d="M176.7,184.8c0,0,35.3,44.3,28.6,85.2c0,0-1.8,0.9-11.2-14.9c0,0,3.5,17.3-2.6,27.2c0,0,2.5-1.7-6.1-8.9
		c0,0,1.7,10.1-4.6,19.6c0,0-1-4.8-11.1-10.6c0,0-1.3,10.7-9.2,19.3c0,0-1.2-8.5-8.5-17.2c0,0,2.6,10.3,0,16.6c0,0,0.9-2.2-1.9-4.4
		c0,0-0.4,9.1-12.3,16.9l0.5,0c-11.9-7.8-12.3-16.9-12.3-16.9c-2.8,2.3-1.9,4.4-1.9,4.4c-2.6-6.2,0-16.6,0-16.6
		c-7.3,8.7-8.5,17.2-8.5,17.2c-8-8.6-9.2-19.3-9.2-19.3c-10.1,5.9-11.1,10.6-11.1,10.6c-6.3-9.5-4.6-19.6-4.6-19.6
		c-8.6,7.2-6.1,8.9-6.1,8.9c-6.1-9.9-4.2-27.2-4.2-27.2c-9.5,15.8-9.8,14.9-9.8,14.9c-6.6-41,25.6-85.2,25.6-85.2"/>
	<path fill="none" stroke="#D4D3C9" stroke-miterlimit="10" d="M205.3,270c0,0-1.8,0.9-11.2-14.9c0,0,3.5,17.3-2.6,27.2
		c0,0,2.5-1.7-6.1-8.9c0,0,1.7,10.1-4.6,19.6c0,0-1-4.8-11.1-10.6c0,0-1.3,10.7-9.2,19.3c0,0-1.2-8.5-8.5-17.2c0,0,2.6,10.3,0,16.6
		c0,0,0.9-2.2-1.9-4.4c0,0-0.4,9.1-12.3,16.9l0.5,0c-11.9-7.8-12.3-16.9-12.3-16.9c-2.8,2.3-1.9,4.4-1.9,4.4c-2.6-6.2,0-16.6,0-16.6
		c-7.3,8.7-8.5,17.2-8.5,17.2c-8-8.6-9.2-19.3-9.2-19.3c-10.1,5.9-11.1,10.6-11.1,10.6c-6.3-9.5-4.6-19.6-4.6-19.6
		c-8.6,7.2-6.1,8.9-6.1,8.9c-6.1-9.9-4.2-27.2-4.2-27.2c-9.5,15.8-9.8,14.9-9.8,14.9"/>
</g>
<g>
	<path fill="#EFEFE1" d="M214,111.2"/>
	<path fill="#EFEFE1" d="M245.8,1.1c-32.5-5.5-59.7,19-69.3,34.4c-12.1-2.9-25.6-4.2-39.7-4.2c-14.4,0-28.1,1.3-40.4,4.4l0,0
		C86.8,20.3,59.5-4.4,26.9,1.1C12.3,30.8,44.2,93.5,41.3,110.6l0,0c5.9,49.2,63.6,87.8,95.5,87.8c27.8,0,88.9-38.4,95.4-87.5
		C231.6,76.5,260.4,30.6,245.8,1.1z"/>
	<path fill="#BB988A" d="M83.1,41.6c0,0-24.2-45.9-53.3-35.6c-9.2,18.9,9.4,63.2,14.8,85.3C53.2,58.5,83.1,41.6,83.1,41.6z"/>
	<path fill="#BB988A" d="M191.8,43.3c0,0,22-47.7,51.1-37.4c9.2,18.9-5.4,60.7-14.8,85.3C219.6,58.5,191.8,43.3,191.8,43.3z"/>
	<path fill="#D4D3C9" d="M90,158.2c0,0,31.5-18.2,32.6-34.7c1-16.4-3.7-44.1-8.3-49.3c-4.6-5.1-41,10.3-41,10.3s-6.7,7.5-7.7,11.7
		C64.6,100.4,81.5,151.8,90,158.2"/>
	<path fill="#D4D3C9" d="M183,158.2c0,0-31.5-18.2-32.6-34.7s0.4-45.2,5-50.3c4.6-5.1,44.3,11.3,44.3,11.3s6.7,7.5,7.7,11.7
		C208.4,100.4,191.4,151.8,183,158.2"/>
	<path fill="#6BA8C0" d="M119.8,120.9c0,0-15.2,13.6-27.2,9.7c-12-3.9-16.2-24-16.2-24S91.6,93,103.6,97
		C115.6,100.9,119.8,120.9,119.8,120.9z"/>
	<path fill="#6BA8C0" d="M152.8,120.9c0,0,15.2,13.6,27.2,9.7c12-3.9,16.2-24,16.2-24S181,93,169,97
		C157,100.9,152.8,120.9,152.8,120.9z"/>
	<path fill="#222B2D" d="M182.6,113.8c0,7.2-8.1,13.1-8.1,13.1s-8.1-5.9-8.1-13.1c0-7.2,8.1-13.1,8.1-13.1S182.6,106.5,182.6,113.8z
		"/>
	<path fill="#222B2D" d="M106.2,113.8c0,7.2-8.1,13.1-8.1,13.1S90,121,90,113.8c0-7.2,8.1-13.1,8.1-13.1S106.2,106.5,106.2,113.8z"
		/>
	<path fill="#FFFFFF" d="M101.6,158.2"/>
	<ellipse fill="#D4D3C9" cx="136.4" cy="168.9" rx="22.1" ry="13.6"/>
	
		<ellipse transform="matrix(0.9937 0.1122 -0.1122 0.9937 19.0368 -11.6153)" fill="#F8F8EC" cx="112.7" cy="163.3" rx="23.6" ry="13.4"/>
	
		<ellipse transform="matrix(0.9931 -0.1175 0.1175 0.9931 -18.0785 19.9311)" fill="#F8F8EC" cx="160" cy="163.3" rx="23.6" ry="13.4"/>
	<path fill="#F27957" d="M146.9,157.8c0,4.3-10.6,7.9-10.6,7.9s-10.6-3.5-10.6-7.9s4.7-5.4,10.6-5.4
		C142.1,152.4,146.9,153.5,146.9,157.8z"/>
	<circle fill="#F8F8EC" cx="131" cy="161.9" r="3.7"/>
	<circle fill="#F8F8EC" cx="141.6" cy="161.9" r="3.7"/>
	<g>
		<path fill="#FFFFFF" d="M98,159.2c0,0-6.1-1.1-15.3-2.3c-2.3-0.3-4.8-0.6-7.4-0.9c-2.6-0.3-5.4-0.6-8.3-0.9
			c-2.9-0.3-5.9-0.5-8.9-0.8c-3-0.2-6.1-0.4-9.2-0.6c-3.1-0.1-6.2-0.3-9.2-0.3c-3,0-6-0.1-8.9-0.1c-1.5,0-2.9,0-4.3,0.1
			c-0.7,0-1.4,0-2.1,0c-0.7,0-1.4,0.1-2,0.1c-2.7,0.2-5.2,0.2-7.5,0.4c-2.3,0.2-4.4,0.4-6.3,0.6c-1.9,0.2-3.5,0.5-4.8,0.6
			c-2.7,0.4-4.2,0.6-4.2,0.6s1.5-0.2,4.2-0.6c1.3-0.2,3-0.5,4.8-0.7c1.9-0.2,4-0.4,6.3-0.6c2.3-0.2,4.8-0.3,7.5-0.5
			c0.7,0,1.3-0.1,2-0.1c0.7,0,1.4,0,2.1-0.1c1.4,0,2.8-0.1,4.3-0.1c2.9-0.1,5.9,0,9,0c3,0,6.1,0.2,9.2,0.2c3.1,0.1,6.2,0.3,9.2,0.5
			c3,0.2,6,0.4,8.9,0.7c2.9,0.2,5.7,0.5,8.3,0.8c2.7,0.3,5.1,0.6,7.5,0.8c9.2,1.1,15.3,2.2,15.3,2.2L98,159.2z"/>
	</g>
	<g>
		<path fill="#FFFFFF" d="M97.2,165.7c0,0-5.4-0.5-13.6-0.9c-2-0.1-4.2-0.2-6.6-0.2c-2.3-0.1-4.8-0.1-7.4-0.1
			c-2.6,0-5.2,0.1-7.9,0.1c-2.7,0.1-5.4,0.2-8.1,0.3c-2.7,0.2-5.4,0.3-8.1,0.6c-2.7,0.3-5.3,0.4-7.8,0.8c-1.3,0.2-2.5,0.3-3.7,0.5
			c-0.6,0.1-1.2,0.2-1.8,0.2c-0.6,0.1-1.2,0.2-1.8,0.3c-2.3,0.4-4.5,0.7-6.5,1.1c-2,0.4-3.8,0.8-5.4,1.2c-1.6,0.3-3,0.8-4.2,1.1
			c-2.3,0.6-3.6,1-3.6,1s1.3-0.4,3.6-1c1.2-0.3,2.5-0.8,4.1-1.1c1.6-0.4,3.4-0.8,5.4-1.2c2-0.4,4.2-0.8,6.5-1.2
			c0.6-0.1,1.2-0.2,1.8-0.3c0.6-0.1,1.2-0.2,1.8-0.3c1.2-0.2,2.5-0.3,3.7-0.5c2.5-0.4,5.2-0.6,7.8-0.9c2.7-0.3,5.4-0.4,8.1-0.7
			c2.7-0.1,5.4-0.3,8.1-0.4c2.7-0.1,5.3-0.2,7.9-0.2c2.6,0,5,0,7.4,0c2.3,0,4.6,0.1,6.6,0.1c8.2,0.2,13.6,0.7,13.6,0.7L97.2,165.7z"
			/>
	</g>
	<g>
		<path fill="#FFFFFF" d="M96.9,170c0,0-4.6,0.3-11.4,1.2c-1.7,0.2-3.6,0.5-5.5,0.8c-2,0.3-4,0.7-6.1,1c-2.1,0.4-4.3,0.8-6.5,1.3
			c-2.2,0.5-4.4,1-6.7,1.5c-2.2,0.6-4.4,1.1-6.6,1.8c-2.2,0.7-4.3,1.2-6.3,2c-1,0.4-2,0.7-3,1c-0.5,0.2-1,0.3-1.5,0.5
			c-0.5,0.2-0.9,0.4-1.4,0.6c-1.8,0.7-3.6,1.4-5.2,2.1c-1.6,0.7-3,1.4-4.3,2c-1.3,0.6-2.3,1.2-3.2,1.7c-1.8,1-2.8,1.5-2.8,1.5
			s1-0.6,2.8-1.5c0.9-0.5,1.9-1.1,3.2-1.7c1.3-0.6,2.7-1.3,4.2-2c1.6-0.7,3.3-1.4,5.1-2.2c0.5-0.2,0.9-0.4,1.4-0.6
			c0.5-0.2,1-0.3,1.4-0.5c1-0.4,2-0.7,3-1.1c2-0.8,4.2-1.4,6.3-2.1c2.2-0.7,4.4-1.2,6.6-1.9c2.2-0.6,4.5-1.1,6.7-1.6
			c2.2-0.5,4.4-1,6.5-1.4c2.1-0.4,4.2-0.8,6.1-1.1c1.9-0.4,3.8-0.6,5.5-0.9c6.8-1,11.4-1.4,11.4-1.4L96.9,170z"/>
	</g>
	<g>
		<path fill="#FFFFFF" d="M174.4,158.3c0,0,6.1-1.1,15.3-2.2c2.3-0.3,4.8-0.6,7.5-0.8c2.6-0.3,5.4-0.5,8.3-0.8
			c2.9-0.3,5.9-0.4,8.9-0.7c3-0.2,6.1-0.3,9.2-0.5c3.1-0.1,6.2-0.2,9.2-0.2c3,0,6.1-0.1,9,0c1.5,0,2.9,0.1,4.3,0.1
			c0.7,0,1.4,0,2.1,0.1c0.7,0,1.4,0.1,2,0.1c2.7,0.2,5.2,0.3,7.5,0.5c2.3,0.2,4.4,0.5,6.3,0.6c1.9,0.2,3.5,0.5,4.8,0.7
			c2.7,0.4,4.2,0.6,4.2,0.6s-1.5-0.2-4.2-0.6c-1.3-0.2-3-0.5-4.8-0.6c-1.9-0.2-4-0.4-6.3-0.6c-2.3-0.2-4.8-0.3-7.5-0.4
			c-0.7,0-1.3-0.1-2-0.1c-0.7,0-1.4,0-2.1,0c-1.4,0-2.8,0-4.3-0.1c-2.9-0.1-5.9,0-8.9,0.1c-3,0-6.1,0.2-9.2,0.3
			c-3.1,0.2-6.2,0.3-9.2,0.6c-3,0.3-6,0.4-8.9,0.8c-2.9,0.3-5.7,0.6-8.3,0.9c-2.6,0.3-5.1,0.6-7.4,0.9c-9.2,1.2-15.3,2.3-15.3,2.3
			L174.4,158.3z"/>
	</g>
	<g>
		<path fill="#FFFFFF" d="M175.4,164.7c0,0,5.4-0.5,13.6-0.7c2,0,4.3-0.1,6.6-0.1c2.3,0,4.8,0,7.4,0c2.6,0,5.2,0.1,7.9,0.2
			c2.7,0.1,5.4,0.3,8.1,0.4c2.7,0.2,5.4,0.4,8.1,0.7c2.7,0.3,5.3,0.5,7.8,0.9c1.3,0.2,2.5,0.4,3.7,0.5c0.6,0.1,1.2,0.2,1.8,0.3
			c0.6,0.1,1.2,0.2,1.8,0.3c2.3,0.4,4.5,0.8,6.5,1.2c2,0.5,3.8,0.9,5.4,1.2c1.6,0.4,3,0.8,4.1,1.1c2.3,0.7,3.6,1,3.6,1
			s-1.3-0.4-3.6-1c-1.2-0.3-2.5-0.7-4.2-1.1c-1.6-0.3-3.5-0.7-5.4-1.2c-2-0.4-4.2-0.7-6.5-1.1c-0.6-0.1-1.2-0.2-1.8-0.3
			c-0.6-0.1-1.2-0.2-1.8-0.2c-1.2-0.2-2.5-0.3-3.7-0.5c-2.5-0.4-5.2-0.5-7.8-0.8c-2.7-0.2-5.4-0.4-8.1-0.6c-2.7-0.1-5.4-0.2-8.1-0.3
			c-2.7,0-5.3-0.1-7.9-0.1c-2.5,0-5,0-7.4,0.1c-2.3,0-4.5,0.1-6.6,0.2c-8.2,0.3-13.6,0.9-13.6,0.9L175.4,164.7z"/>
	</g>
	<g>
		<path fill="#FFFFFF" d="M175.7,169c0,0,4.6,0.4,11.4,1.4c1.7,0.3,3.6,0.5,5.5,0.9c2,0.3,4,0.7,6.1,1.1c2.1,0.4,4.3,0.9,6.5,1.4
			c2.2,0.5,4.4,1.1,6.7,1.6c2.2,0.6,4.4,1.2,6.6,1.9c2.2,0.7,4.3,1.3,6.3,2.1c1,0.4,2,0.7,3,1.1c0.5,0.2,1,0.4,1.4,0.5
			c0.5,0.2,0.9,0.4,1.4,0.6c1.8,0.8,3.6,1.4,5.1,2.2c1.6,0.7,3,1.4,4.2,2c1.3,0.6,2.3,1.3,3.2,1.7c1.8,1,2.8,1.5,2.8,1.5
			s-1-0.5-2.8-1.5c-0.9-0.5-1.9-1.1-3.2-1.7c-1.3-0.6-2.7-1.2-4.3-2c-1.6-0.7-3.3-1.3-5.2-2.1c-0.5-0.2-0.9-0.4-1.4-0.6
			c-0.5-0.2-1-0.3-1.5-0.5c-1-0.3-2-0.7-3-1c-2-0.7-4.2-1.3-6.3-2c-2.2-0.6-4.4-1.2-6.6-1.8c-2.2-0.5-4.5-1.1-6.7-1.5
			c-2.2-0.4-4.4-0.9-6.5-1.3c-2.1-0.4-4.2-0.7-6.1-1c-1.9-0.3-3.8-0.6-5.5-0.8c-6.8-0.9-11.4-1.2-11.4-1.2L175.7,169z"/>
	</g>
</g>
</svg>
