<?xml version="1.0" encoding="utf-8"?>
<!-- Generator: Adobe Illustrator 18.0.0, SVG Export Plug-In . SVG Version: 6.00 Build 0)  -->
<!DOCTYPE svg PUBLIC "-//W3C//DTD SVG 1.1//EN" "http://www.w3.org/Graphics/SVG/1.1/DTD/svg11.dtd">
<svg version="1.1" id="Layer_1" xmlns="http://www.w3.org/2000/svg" xmlns:xlink="http://www.w3.org/1999/xlink" x="0px" y="0px"
	 viewBox="0 0 32 32" enable-background="new 0 0 32 32" xml:space="preserve">
<g>
	<path fill="#414141" d="M16,0C7.2,0,0,7.2,0,16s7.2,16,16,16c8.8,0,16-7.2,16-16S24.8,0,16,0z M16,28C9.4,28,4,22.6,4,16
		S9.4,4,16,4s12,5.4,12,12S22.6,28,16,28z"/>
	<path fill="none" stroke="#414141" stroke-width="3" stroke-miterlimit="10" d="M7.3,5.2c0,0,8.1,9.9,0,21.8"/>
	<path fill="none" stroke="#414141" stroke-width="3" stroke-miterlimit="10" d="M24.9,5.2c0,0-2.9,3.6-3.5,9.1
		c-0.4,3.6,0.3,8,3.5,12.7"/>
</g>
</svg>
