<?xml version="1.0" encoding="utf-8"?>
<!-- Generator: Adobe Illustrator 18.0.0, SVG Export Plug-In . SVG Version: 6.00 Build 0)  -->
<!DOCTYPE svg PUBLIC "-//W3C//DTD SVG 1.1//EN" "http://www.w3.org/Graphics/SVG/1.1/DTD/svg11.dtd">
<svg version="1.1" id="Layer_1" xmlns="http://www.w3.org/2000/svg" xmlns:xlink="http://www.w3.org/1999/xlink" x="0px" y="0px"
	 viewBox="0 0 210.2 308.4" enable-background="new 0 0 210.2 308.4" xml:space="preserve">
<g>
	<path fill="#D4D3C9" d="M143.9,200.1c0,0,82.4-25,19.4,79.9c0,0,54.3,5.5,46.1,16.9c-8.2,11.3-37.5,4.7-48.4,3
		c-11-1.7-44.6-7.4-44.6-7.4L143.9,200.1z"/>
	<path fill="#D4D3C9" d="M67.2,200.1c0,0-82.4-25-19.4,79.9c0,0-54.3,5.5-46.1,16.9c8.2,11.3,37.5,4.7,48.4,3s44.6-7.4,44.6-7.4
		L67.2,200.1z"/>
	<path fill="#D4D3C9" d="M142,0c91.1,167.1,5.1,286.4-35.9,286.4S-17.8,180,77.5,4.1L142,0z"/>
	<polygon fill="#F8F8EC" points="44.6,74.8 86.6,95.4 87,287.8 60.9,288.7 	"/>
	<polygon fill="#F8F8EC" points="136.2,98.7 170.8,80.1 148.8,289.2 123.2,286.9 	"/>
	<path fill="#F8F8EC" d="M174.7,294.8c-9.4,24.2-15.8-1.4-15.8-1.4s-3.1,14-12,14c-9.4,0-12.5-14.5-12.5-14.5s-3.7,23.9-14.8,3.3
		c-5.6-10.5,5.6-21.1,27.2-21.1S179,283.7,174.7,294.8z"/>
	<path fill="#F8F8EC" d="M96.1,295.8c-9.4,24.2-15.8-1.4-15.8-1.4s-3.1,14-12,14c-9.4,0-12.5-14.5-12.5-14.5S52,317.8,41,297.1
		c-5.6-10.5,5.6-21.1,27.2-21.1S100.4,284.7,96.1,295.8z"/>
	<g>
		<path fill="#EFEFE1" d="M107.5,21.9"/>
		<path fill="#EFEFE1" d="M107.6,21.9"/>
	</g>
	<path fill="#EFEFE1" d="M105.7,54.5"/>
	<path fill="#010101" d="M105.9,18.6"/>
	<path fill="#F8F8EC" d="M148.1,11.7c0,0,35.3,44.3,28.6,85.2c0,0-1.8,0.9-11.2-14.9c0,0,3.5,17.3-2.6,27.2c0,0,2.5-1.7-6.1-8.9
		c0,0,1.7,10.1-4.6,19.6c0,0-1-4.8-11.1-10.6c0,0-1.3,10.7-9.2,19.3c0,0-1.2-8.5-8.5-17.2c0,0,2.6,10.3,0,16.6c0,0,0.9-2.2-1.9-4.4
		c0,0-0.4,9.1-12.3,16.9h0.5c-11.9-7.8-12.3-16.9-12.3-16.9c-2.8,2.3-1.9,4.4-1.9,4.4c-2.6-6.2,0-16.6,0-16.6
		c-7.3,8.7-8.5,17.2-8.5,17.2c-8-8.6-9.2-19.3-9.2-19.3c-10.1,5.9-11.1,10.6-11.1,10.6c-6.3-9.5-4.6-19.6-4.6-19.6
		c-8.6,7.2-6.1,8.9-6.1,8.9c-6.1-9.9-4.2-27.2-4.2-27.2C42.3,97.8,42,96.9,42,96.9c-6.6-41,25.6-85.2,25.6-85.2"/>
	<path fill="none" stroke="#D4D3C9" stroke-miterlimit="10" d="M176.7,96.9c0,0-1.8,0.9-11.2-14.9c0,0,3.5,17.3-2.6,27.2
		c0,0,2.5-1.7-6.1-8.9c0,0,1.7,10.1-4.6,19.6c0,0-1-4.8-11.1-10.6c0,0-1.3,10.7-9.2,19.3c0,0-1.2-8.5-8.5-17.2c0,0,2.6,10.3,0,16.6
		c0,0,0.9-2.2-1.9-4.4c0,0-0.4,9.1-12.3,16.9h0.5c-11.9-7.8-12.3-16.9-12.3-16.9c-2.8,2.3-1.9,4.4-1.9,4.4c-2.6-6.2,0-16.6,0-16.6
		c-7.3,8.7-8.5,17.2-8.5,17.2c-8-8.6-9.2-19.3-9.2-19.3c-10.1,5.9-11.1,10.6-11.1,10.6c-6.3-9.5-4.6-19.6-4.6-19.6
		c-8.6,7.2-6.1,8.9-6.1,8.9c-6.1-9.9-4.2-27.2-4.2-27.2C42.3,97.8,42,96.9,42,96.9"/>
</g>
</svg>
