<?xml version="1.0" encoding="utf-8"?>
<!-- Generator: Adobe Illustrator 18.0.0, SVG Export Plug-In . SVG Version: 6.00 Build 0)  -->
<!DOCTYPE svg PUBLIC "-//W3C//DTD SVG 1.1//EN" "http://www.w3.org/Graphics/SVG/1.1/DTD/svg11.dtd">
<svg version="1.1" id="Layer_1" xmlns="http://www.w3.org/2000/svg" xmlns:xlink="http://www.w3.org/1999/xlink" x="0px" y="0px"
	 viewBox="0 0 612 792" enable-background="new 0 0 612 792" xml:space="preserve">
<g>
	<path fill="#EFEFE1" d="M479.9,422.6"/>
	<path fill="#EFEFE1" d="M550.7,176.4c-72.7-12.3-133.5,42.5-155,76.9c-27.1-6.5-57.2-9.4-88.8-9.4c-32.2,0-62.8,2.9-90.3,9.8l0,0
		c-21.5-34.4-82.3-89.7-155.2-77.4c-32.6,66.2,38.7,206.4,32,244.6l0,0c13.2,110,142.2,196.3,213.5,196.3
		c62.2,0,198.8-85.9,213.3-195.7C519,344.8,583.4,242.4,550.7,176.4z"/>
	<path fill="#BB988A" d="M187.2,266.8c0,0-54.1-102.6-119.2-79.6c-20.6,42.3,21,141.3,33.1,190.7
		C120.1,304.8,187.2,266.8,187.2,266.8z"/>
	<path fill="#BB988A" d="M430,270.8c0,0,49.2-106.7,114.3-83.6c20.6,42.3-12.1,135.7-33.1,190.7C492.1,304.8,430,270.8,430,270.8z"
		/>
	<path fill="#D4D3C9" d="M202.4,527.5c0,0,70.4-40.7,72.9-77.6c2.2-36.7-8.3-98.6-18.6-110.2c-10.3-11.4-91.7,23-91.7,23
		s-15,16.8-17.2,26.2C145.6,398.5,183.6,513.4,202.4,527.5"/>
	<path fill="#D4D3C9" d="M410.3,527.5c0,0-70.4-40.7-72.9-77.6c-2.5-36.9,0.9-101.1,11.2-112.5c10.3-11.4,99.1,25.3,99.1,25.3
		s15,16.8,17.2,26.2C467.1,398.5,429.3,513.4,410.3,527.5"/>
	<path fill="#6BA8C0" d="M269,444.3c0,0-34,30.4-60.8,21.7S172,412.3,172,412.3s34-30.4,60.8-21.7C259.6,399.6,269,444.3,269,444.3z
		"/>
	<path fill="#6BA8C0" d="M343,444.3c0,0,34,30.4,60.8,21.7c26.8-8.7,36.2-53.7,36.2-53.7s-34-30.4-60.8-21.7
		C352.4,399.6,343,444.3,343,444.3z"/>
	<path fill="#222B2D" d="M409.6,428.2c0,16.1-18.1,29.3-18.1,29.3s-18.1-13.2-18.1-29.3s18.1-29.3,18.1-29.3
		S409.6,412.1,409.6,428.2z"/>
	<path fill="#222B2D" d="M238.6,428.2c0,16.1-18.1,29.3-18.1,29.3s-18.1-13.2-18.1-29.3s18.1-29.3,18.1-29.3
		S238.6,412.1,238.6,428.2z"/>
	<path fill="#FFFFFF" d="M228.3,527.5"/>
	<ellipse fill="#D4D3C9" cx="306.1" cy="551.6" rx="49.4" ry="30.4"/>
	
		<ellipse transform="matrix(0.1122 -0.9937 0.9937 0.1122 -310.7982 730.3698)" fill="#F8F8EC" cx="253.3" cy="539.1" rx="30" ry="52.8"/>
	
		<ellipse transform="matrix(-0.1175 -0.9931 0.9931 -0.1175 -134.0437 959.0867)" fill="#F8F8EC" cx="359.1" cy="539.1" rx="30" ry="52.8"/>
	<path fill="#F27957" d="M329.8,526.8c0,9.6-23.7,17.7-23.7,17.7s-23.7-7.8-23.7-17.7c0-9.8,10.5-12.1,23.7-12.1
		S329.8,517,329.8,526.8z"/>
	<circle fill="#F8F8EC" cx="294" cy="536" r="8.3"/>
	<circle fill="#F8F8EC" cx="317.7" cy="536" r="8.3"/>
	<g>
		<path fill="#FFFFFF" d="M220.2,529.9c0,0-13.6-2.5-34.2-5.1c-5.1-0.7-10.7-1.3-16.5-2s-12.1-1.3-18.6-2
			c-6.5-0.7-13.2-1.1-19.9-1.8c-6.7-0.4-13.6-0.9-20.6-1.3c-6.9-0.2-13.9-0.7-20.6-0.7s-13.4-0.2-19.9-0.2c-3.4,0-6.5,0-9.6,0.2
			c-1.6,0-3.1,0-4.7,0c-1.6,0-3.1,0.2-4.5,0.2c-6,0.4-11.6,0.4-16.8,0.9c-5.1,0.4-9.8,0.9-14.1,1.3c-4.2,0.4-7.8,1.1-10.7,1.3
			c-6,0.9-9.4,1.3-9.4,1.3s3.4-0.4,9.4-1.3c2.9-0.4,6.7-1.1,10.7-1.6c4.2-0.4,8.9-0.9,14.1-1.3c5.1-0.4,10.7-0.7,16.8-1.1
			c1.6,0,2.9-0.2,4.5-0.2c1.6,0,3.1,0,4.7-0.2c3.1,0,6.3-0.2,9.6-0.2c6.5-0.2,13.2,0,20.1,0c6.7,0,13.6,0.4,20.6,0.4
			c6.9,0.2,13.9,0.7,20.6,1.1c6.7,0.4,13.4,0.9,19.9,1.6c6.5,0.4,12.7,1.1,18.6,1.8c6,0.7,11.4,1.3,16.8,1.8
			c20.6,2.5,34.2,4.9,34.2,4.9L220.2,529.9z"/>
	</g>
	<g>
		<path fill="#FFFFFF" d="M218.5,544.2c0,0-12.1-1.1-30.4-2c-4.5-0.2-9.4-0.4-14.8-0.4c-5.1-0.2-10.7-0.2-16.5-0.2
			c-5.8,0-11.6,0.2-17.7,0.2c-6,0.2-12.1,0.4-18.1,0.7c-6,0.4-12.1,0.7-18.1,1.3c-6,0.7-11.9,0.9-17.4,1.8c-2.9,0.4-5.6,0.7-8.3,1.1
			c-1.3,0.2-2.7,0.4-4,0.4c-1.3,0.2-2.7,0.4-4,0.7c-5.1,0.9-10.1,1.6-14.5,2.5s-8.5,1.8-12.1,2.7c-3.6,0.7-6.7,1.8-9.4,2.5
			c-5.1,1.3-8,2.2-8,2.2s2.9-0.9,8-2.2c2.7-0.7,5.6-1.8,9.2-2.5c3.6-0.9,7.6-1.8,12.1-2.7c4.5-0.9,9.4-1.8,14.5-2.7
			c1.3-0.2,2.7-0.4,4-0.7s2.7-0.4,4-0.7c2.7-0.4,5.6-0.7,8.3-1.1c5.6-0.9,11.6-1.3,17.4-2c6-0.7,12.1-0.9,18.1-1.6
			c6-0.2,12.1-0.7,18.1-0.9c6-0.2,11.9-0.4,17.7-0.4s11.2,0,16.5,0c5.1,0,10.3,0.2,14.8,0.2c18.3,0.4,30.4,1.6,30.4,1.6L218.5,544.2
			z"/>
	</g>
	<g>
		<path fill="#FFFFFF" d="M218,553.9c0,0-10.3,0.7-25.5,2.7c-3.8,0.4-8,1.1-12.3,1.8c-4.5,0.7-8.9,1.6-13.6,2.2
			c-4.7,0.9-9.6,1.8-14.5,2.9c-4.9,1.1-9.8,2.2-15,3.4c-4.9,1.3-9.8,2.5-14.8,4c-4.9,1.6-9.6,2.7-14.1,4.5c-2.2,0.9-4.5,1.6-6.7,2.2
			c-1.1,0.4-2.2,0.7-3.4,1.1c-1.1,0.4-2,0.9-3.1,1.3c-4,1.6-8,3.1-11.6,4.7c-3.6,1.6-6.7,3.1-9.6,4.5c-2.9,1.3-5.1,2.7-7.2,3.8
			c-4,2.2-6.3,3.4-6.3,3.4s2.2-1.3,6.3-3.4c2-1.1,4.2-2.5,7.2-3.8c2.9-1.3,6-2.9,9.4-4.5c3.6-1.6,7.4-3.1,11.4-4.9
			c1.1-0.4,2-0.9,3.1-1.3c1.1-0.4,2.2-0.7,3.1-1.1c2.2-0.9,4.5-1.6,6.7-2.5c4.5-1.8,9.4-3.1,14.1-4.7c4.9-1.6,9.8-2.7,14.8-4.2
			c4.9-1.3,10.1-2.5,15-3.6c4.9-1.1,9.8-2.2,14.5-3.1s9.4-1.8,13.6-2.5c4.2-0.9,8.5-1.3,12.3-2c15.2-2.2,25.5-3.1,25.5-3.1
			L218,553.9z"/>
	</g>
	<g>
		<path fill="#FFFFFF" d="M391.3,527.7c0,0,13.6-2.5,34.2-4.9c5.1-0.7,10.7-1.3,16.8-1.8c5.8-0.7,12.1-1.1,18.6-1.8
			c6.5-0.7,13.2-0.9,19.9-1.6c6.7-0.4,13.6-0.7,20.6-1.1c6.9-0.2,13.9-0.4,20.6-0.4c6.7,0,13.6-0.2,20.1,0c3.4,0,6.5,0.2,9.6,0.2
			c1.6,0,3.1,0,4.7,0.2c1.6,0,3.1,0.2,4.5,0.2c6,0.4,11.6,0.7,16.8,1.1s9.8,1.1,14.1,1.3c4.2,0.4,7.8,1.1,10.7,1.6
			c6,0.9,9.4,1.3,9.4,1.3s-3.4-0.4-9.4-1.3c-2.9-0.4-6.7-1.1-10.7-1.3c-4.2-0.4-8.9-0.9-14.1-1.3c-5.1-0.4-10.7-0.7-16.8-0.9
			c-1.6,0-2.9-0.2-4.5-0.2c-1.6,0-3.1,0-4.7,0c-3.1,0-6.3,0-9.6-0.2c-6.5-0.2-13.2,0-19.9,0.2c-6.7,0-13.6,0.4-20.6,0.7
			c-6.9,0.4-13.9,0.7-20.6,1.3c-6.7,0.7-13.4,0.9-19.9,1.8c-6.5,0.7-12.7,1.3-18.6,2s-11.4,1.3-16.5,2c-20.6,2.7-34.2,5.1-34.2,5.1
			L391.3,527.7z"/>
	</g>
	<g>
		<path fill="#FFFFFF" d="M393.3,542c0,0,12.1-1.1,30.4-1.6c4.5,0,9.6-0.2,14.8-0.2c5.1,0,10.7,0,16.5,0s11.6,0.2,17.7,0.4
			c6,0.2,12.1,0.7,18.1,0.9c6,0.4,12.1,0.9,18.1,1.6c6,0.7,11.9,1.1,17.4,2c2.9,0.4,5.6,0.9,8.3,1.1c1.3,0.2,2.7,0.4,4,0.7
			s2.7,0.4,4,0.7c5.1,0.9,10.1,1.8,14.5,2.7c4.5,1.1,8.5,2,12.1,2.7c3.6,0.9,6.7,1.8,9.2,2.5c5.1,1.6,8,2.2,8,2.2s-2.9-0.9-8-2.2
			c-2.7-0.7-5.6-1.6-9.4-2.5c-3.6-0.7-7.8-1.6-12.1-2.7c-4.5-0.9-9.4-1.6-14.5-2.5c-1.3-0.2-2.7-0.4-4-0.7c-1.3-0.2-2.7-0.4-4-0.4
			c-2.7-0.4-5.6-0.7-8.3-1.1c-5.6-0.9-11.6-1.1-17.4-1.8c-6-0.4-12.1-0.9-18.1-1.3c-6-0.2-12.1-0.4-18.1-0.7c-6,0-11.9-0.2-17.7-0.2
			c-5.6,0-11.2,0-16.5,0.2c-5.1,0-10.1,0.2-14.8,0.4c-18.3,0.7-30.4,2-30.4,2L393.3,542z"/>
	</g>
	<g>
		<path fill="#FFFFFF" d="M394.2,551.6c0,0,10.3,0.9,25.5,3.1c3.8,0.7,8,1.1,12.3,2c4.5,0.7,8.9,1.6,13.6,2.5
			c4.7,0.9,9.6,2,14.5,3.1c4.9,1.1,9.8,2.5,15,3.6c4.9,1.3,9.8,2.7,14.8,4.2c4.9,1.6,9.6,2.9,14.1,4.7c2.2,0.9,4.5,1.6,6.7,2.5
			c1.1,0.4,2.2,0.9,3.1,1.1c1.1,0.4,2,0.9,3.1,1.3c4,1.8,8,3.1,11.4,4.9c3.6,1.6,6.7,3.1,9.4,4.5c2.9,1.3,5.1,2.9,7.2,3.8
			c4,2.2,6.3,3.4,6.3,3.4s-2.2-1.1-6.3-3.4c-2-1.1-4.2-2.5-7.2-3.8c-2.9-1.3-6-2.7-9.6-4.5c-3.6-1.6-7.4-2.9-11.6-4.7
			c-1.1-0.4-2-0.9-3.1-1.3c-1.1-0.4-2.2-0.7-3.4-1.1c-2.2-0.7-4.5-1.6-6.7-2.2c-4.5-1.6-9.4-2.9-14.1-4.5c-4.9-1.3-9.8-2.7-14.8-4
			c-4.9-1.1-10.1-2.5-15-3.4c-4.9-0.9-9.8-2-14.5-2.9c-4.7-0.9-9.4-1.6-13.6-2.2s-8.5-1.3-12.3-1.8c-15.2-2-25.5-2.7-25.5-2.7
			L394.2,551.6z"/>
	</g>
</g>
</svg>
