<?xml version="1.0" encoding="utf-8"?>
<!-- Generator: Adobe Illustrator 18.0.0, SVG Export Plug-In . SVG Version: 6.00 Build 0)  -->
<!DOCTYPE svg PUBLIC "-//W3C//DTD SVG 1.1//EN" "http://www.w3.org/Graphics/SVG/1.1/DTD/svg11.dtd">
<svg version="1.1" id="Layer_1" xmlns="http://www.w3.org/2000/svg" xmlns:xlink="http://www.w3.org/1999/xlink" x="0px" y="0px"
	 viewBox="0 153.4 612 484.9" enable-background="new 0 153.4 612 484.9" xml:space="preserve">
<path fill="#EFEFE1" d="M468,396.3"/>
<path fill="#EFEFE1" d="M537.5,155.1c-71.1-12-130.6,41.7-151.8,75.4c-26.5-6.2-56-9.1-87.2-9.1c-31.7,0-61.8,2.9-88.5,9.6l0,0
	C189.3,197,129.5,143.1,58,155.1C26.1,220,95.9,357.3,89.4,394.8l0,0c12.9,107.7,139.3,192.4,209.1,192.4
	c60.9,0,194.6-84.3,209.1-191.7C506.5,320.1,569.6,219.8,537.5,155.1z"/>
<path fill="#BB988A" d="M181.3,243.6c0,0-53.1-100.6-116.8-78C44.4,207,85.2,304,97,352.4C115.5,280.8,181.3,243.6,181.3,243.6z"/>
<path fill="#BB988A" d="M419.4,247.4c0,0,48.2-104.3,111.9-81.8c20.1,41.5-11.8,133.1-32.6,186.8C480,280.8,419.4,247.4,419.4,247.4
	z"/>
<path fill="#D4D3C9" d="M196.2,499.1c0,0,69.1-39.9,71.3-76c2.2-36.1-8.2-96.8-18.1-107.9c-10-11.1-76.2,37-76.2,37
	s-27,11.6-29.2,20.7C141.8,382.3,177.7,485.3,196.2,499.1"/>
<path fill="#D4D3C9" d="M400,499.1c0,0-69.1-39.9-71.3-76c-2.2-35.9,0.9-99,10.9-110.1c10-11.1,79.8,39.5,79.8,39.5
	s30.5,11.6,32.8,20.7C454.4,382.3,418.5,485.3,400,499.1"/>
<path fill="#6BA8C0" d="M261.5,417.5c0,0-33.4,29.9-59.8,21.2c-26.3-8.7-35.4-52.4-35.4-52.4s33.4-29.9,59.8-21.2
	C252.4,373.6,261.5,417.5,261.5,417.5z"/>
<path fill="#6BA8C0" d="M334,417.5c0,0,33.4,29.9,59.8,21.2c26.3-8.7,35.4-52.4,35.4-52.4s-33.4-29.9-59.8-21.2
	C343.1,373.6,334,417.5,334,417.5z"/>
<path fill="#222B2D" d="M399.3,401.9c0,15.8-17.8,28.8-17.8,28.8s-17.8-12.9-17.8-28.8s17.8-28.8,17.8-28.8S399.3,386.1,399.3,401.9
	z"/>
<path fill="#222B2D" d="M231.6,401.9c0,15.8-17.8,28.8-17.8,28.8S196,417.7,196,401.9s17.8-28.8,17.8-28.8S231.6,386.1,231.6,401.9z
	"/>
<path fill="#FFFFFF" d="M221.6,499.1"/>
<ellipse fill="#D4D3C9" cx="297.9" cy="522.7" rx="48.4" ry="29.9"/>
<ellipse transform="matrix(-0.2214 -0.9752 0.9752 -0.2214 -217.5126 872.7552)" fill="#F8F8EC" cx="239.7" cy="523.2" rx="29.2" ry="51.7"/>
<ellipse transform="matrix(0.1033 -0.9946 0.9946 0.1033 -189.2273 810.1268)" fill="#F8F8EC" cx="354.7" cy="510" rx="29.4" ry="51.7"/>
<path fill="#F27957" d="M320.8,498.2c0,9.6-23.2,17.2-23.2,17.2s-23.2-7.8-23.2-17.2c0-9.4,10.5-11.8,23.2-11.8
	S320.8,488.9,320.8,498.2z"/>
<circle fill="#F8F8EC" cx="286" cy="507.4" r="8.2"/>
<circle fill="#F8F8EC" cx="309.2" cy="507.4" r="8.2"/>
<g>
	<path fill="#FFFFFF" d="M206.2,525.4c0,0-13.4,2-33.2,6.2c-4.9,1.1-10.3,2.2-16.1,3.6c-5.8,1.3-11.6,2.7-17.8,4.2
		c-6.2,1.3-12.5,3.1-19,4.9c-6.5,1.8-12.9,3.6-19.4,5.6c-6.5,2-12.9,4-19.4,6c-6.2,2.2-12.7,4-18.5,6.2c-2.9,1.1-6,2.2-8.7,3.3
		c-2.9,1.1-5.6,2-8.5,3.1c-5.4,2.2-10.5,4.2-15.2,6.2c-4.7,2-8.9,4-12.7,5.8c-3.8,1.8-6.9,3.6-9.6,4.9c-5.1,2.5-8.2,4-8.2,4
		s2.9-1.6,8.2-4.5c2.7-1.3,5.8-3.1,9.6-4.9s8-3.8,12.5-5.8c4.7-2.2,9.8-4.2,15.2-6.5c2.7-1.1,5.6-2.2,8.2-3.3
		c2.9-1.1,5.8-2.2,8.7-3.3c6-2.2,12.3-4.2,18.5-6.5c6.2-2.2,12.9-4.2,19.2-6.2c6.5-2,12.9-3.8,19.4-5.8c6.5-1.8,12.7-3.6,19-5.1
		c6.2-1.6,12-3.1,17.8-4.5c5.6-1.3,11.1-2.5,16.1-3.6c19.8-4.5,33.2-6.7,33.2-6.7L206.2,525.4z"/>
</g>
<g>
	<path fill="#FFFFFF" d="M209.1,539.5c0,0-11.6,2.9-28.8,8c-4.2,1.3-8.9,2.7-13.8,4.2c-4.9,1.6-10,3.3-15.2,5.1
		c-5.4,1.8-10.7,3.8-16.3,5.8c-5.6,2-10.9,4.2-16.5,6.5c-5.6,2.5-10.9,4.7-16.3,6.9c-5.4,2.5-10.7,4.7-15.6,7.4
		c-2.5,1.3-4.9,2.5-7.4,3.6c-1.1,0.7-2.5,1.1-3.6,1.8s-2.2,1.3-3.3,1.8c-4.5,2.5-8.7,4.7-12.7,7.1c-3.8,2.2-7.4,4.5-10.5,6.5
		c-3.1,1.8-5.6,3.8-7.8,5.4c-4.2,2.9-6.7,4.7-6.7,4.7s2.5-1.8,6.7-4.7c2.2-1.6,4.7-3.3,7.8-5.4s6.5-4,10.3-6.5s8-4.7,12.5-7.1
		c1.1-0.7,2.2-1.3,3.3-2c1.1-0.7,2.5-1.1,3.6-1.8c2.5-1.3,4.9-2.5,7.4-3.8c4.9-2.7,10.3-4.9,15.6-7.6c5.4-2.5,10.9-4.7,16.3-7.1
		c5.6-2.2,11.1-4.5,16.5-6.7c5.6-2,10.9-4.2,16.1-6c5.4-2,10.3-3.8,15.2-5.4c4.9-1.8,9.6-3.1,13.8-4.5c17.2-5.4,28.8-8.5,28.8-8.5
		L209.1,539.5z"/>
</g>
<g>
	<path fill="#FFFFFF" d="M211.8,548.4c0,0-9.1,4-22.7,10.7c-3.3,1.8-6.9,3.6-10.7,5.6c-3.8,2-7.8,4.2-11.8,6.5
		c-4.2,2.2-8.2,4.9-12.5,7.4c-4.2,2.7-8.5,5.4-12.7,8c-4.2,2.9-8.5,5.6-12.5,8.5c-4,2.9-8,5.6-11.6,8.7c-1.8,1.6-3.6,2.9-5.4,4.2
		c-0.9,0.7-1.8,1.3-2.7,2c-0.9,0.7-1.6,1.3-2.5,2.2c-3.3,2.9-6.5,5.4-9.1,8c-2.7,2.7-5.1,5.1-7.4,7.1c-2.2,2.2-4,4.2-5.4,5.8
		c-2.9,3.3-4.7,5.1-4.7,5.1s1.6-1.8,4.7-5.1c1.6-1.6,3.1-3.8,5.4-5.8c2.2-2.2,4.7-4.7,7.4-7.4c2.7-2.7,5.8-5.4,9.1-8.2
		c0.9-0.7,1.6-1.6,2.5-2.2c0.9-0.7,1.8-1.3,2.7-2.2c1.8-1.3,3.6-2.9,5.4-4.5c3.6-3.1,7.6-5.8,11.6-8.9c4-2.9,8.2-5.8,12.3-8.7
		c4.2-2.7,8.5-5.6,12.7-8.2c4.2-2.7,8.2-5.1,12.5-7.6c4-2.5,8-4.7,11.8-6.7c3.8-2.2,7.4-4,10.7-5.8c13.4-7.1,22.7-11.1,22.7-11.1
		L211.8,548.4z"/>
</g>
<g>
	<path fill="#FFFFFF" d="M399.3,512.3c0,0,13.6,0.7,33.9,2.7c5.1,0.4,10.5,1.1,16.3,1.8c5.8,0.7,12,1.6,18.3,2.2
		c6.2,0.9,12.9,2,19.4,2.9c6.7,1.1,13.4,2.2,20.1,3.3c6.7,1.3,13.4,2.5,19.8,4s12.9,2.7,19.2,4.5c3.1,0.9,6.2,1.6,9.1,2.2
		c1.6,0.4,2.9,0.7,4.5,1.1c1.3,0.4,2.9,0.9,4.2,1.3c5.6,1.6,10.9,3.1,15.8,4.7c4.9,1.6,9.4,3.1,13.2,4.5c4,1.3,7.4,2.7,10,3.8
		c5.6,2.2,8.7,3.3,8.7,3.3s-3.1-1.1-8.7-3.3c-2.9-1.1-6-2.5-10-3.8c-4-1.3-8.5-2.7-13.2-4.2c-4.9-1.6-10.3-2.9-15.8-4.5
		c-1.3-0.4-2.9-0.9-4.2-1.1c-1.6-0.4-2.9-0.7-4.5-1.1c-2.9-0.7-6-1.6-9.1-2.2c-6.2-1.6-12.7-2.7-19.2-4.2
		c-6.5-1.3-13.2-2.5-19.8-3.8c-6.7-1.1-13.4-2.2-20.1-3.1c-6.7-0.9-13.2-2-19.4-2.7c-6.2-0.9-12.5-1.6-18.3-2.2
		c-5.8-0.7-11.4-1.1-16.3-1.6c-20.3-1.8-33.9-2.5-33.9-2.5V512.3z"/>
</g>
<g>
	<path fill="#FFFFFF" d="M386.8,520.3c0,0,11.8,1.6,29.4,5.1c4.5,0.9,9.1,1.8,14.3,2.9c5.1,1.1,10.3,2.2,15.8,3.6
		c5.6,1.3,11.1,2.7,16.7,4.2c5.8,1.6,11.4,3.1,17.2,4.7c5.8,1.8,11.4,3.3,16.9,5.4c5.6,2,11.1,3.6,16.3,5.6c2.7,0.9,5.1,2,7.8,2.9
		c1.3,0.4,2.5,0.9,3.8,1.3c1.1,0.4,2.5,1.1,3.6,1.6c4.7,2,9.4,3.8,13.4,5.8c4,2,7.8,3.8,11.1,5.4c3.3,1.6,6,3.1,8.2,4.5
		c4.7,2.5,7.1,4,7.1,4s-2.7-1.3-7.4-3.8c-2.2-1.1-5.1-2.9-8.5-4.2c-3.3-1.6-7.1-3.3-11.1-5.1c-4-1.8-8.7-3.6-13.4-5.6
		c-1.1-0.4-2.5-0.9-3.6-1.6c-1.3-0.4-2.5-0.9-3.8-1.3c-2.5-0.9-5.1-1.8-7.8-2.9c-5.4-2-10.7-3.6-16.3-5.6
		c-5.6-1.8-11.4-3.3-17.2-5.1c-5.8-1.6-11.6-3.1-17.2-4.7c-5.8-1.3-11.4-2.9-16.7-4c-5.6-1.3-10.7-2.5-15.8-3.3
		c-5.1-1.1-9.8-2-14.3-2.7c-17.6-3.1-29.4-4.7-29.4-4.7L386.8,520.3z"/>
</g>
<g>
	<path fill="#FFFFFF" d="M385.9,529.7c0,0,9.6,2.9,23.9,8.5c3.6,1.3,7.4,2.9,11.4,4.5c4,1.6,8.2,3.3,12.5,5.4c4.5,1.8,8.7,4,13.2,6
		c4.5,2.2,8.9,4.5,13.4,6.7c4.5,2.5,8.9,4.7,13.2,7.1c4.2,2.5,8.5,4.9,12.5,7.4c2,1.3,4,2.5,5.8,3.8c0.9,0.7,2,1.1,2.9,1.8
		c0.9,0.7,1.8,1.3,2.7,1.8c3.6,2.5,6.9,4.7,10,7.1c2.9,2.2,5.8,4.5,8,6.5c2.5,2,4.2,3.8,6,5.1c3.3,2.9,5.1,4.7,5.1,4.7
		s-2-1.6-5.1-4.5c-1.8-1.3-3.6-3.3-6-5.1c-2.5-1.8-5.1-4-8.2-6.2c-2.9-2.2-6.5-4.5-10-6.9c-0.9-0.7-1.8-1.3-2.7-1.8
		c-0.9-0.7-2-1.1-2.9-1.8c-2-1.1-4-2.5-6-3.6c-4-2.5-8.2-4.7-12.5-7.4c-4.2-2.5-8.9-4.7-13.4-6.9s-9.1-4.5-13.6-6.5
		c-4.5-2-8.9-4-13.4-5.8c-4.2-1.8-8.5-3.6-12.5-5.1c-4-1.6-7.8-3.1-11.4-4.5c-14-5.4-23.9-8-23.9-8L385.9,529.7z"/>
</g>
</svg>
