<?xml version="1.0" encoding="utf-8"?>
<!-- Generator: Adobe Illustrator 18.0.0, SVG Export Plug-In . SVG Version: 6.00 Build 0)  -->
<!DOCTYPE svg PUBLIC "-//W3C//DTD SVG 1.1//EN" "http://www.w3.org/Graphics/SVG/1.1/DTD/svg11.dtd">
<svg version="1.1" id="Layer_1" xmlns="http://www.w3.org/2000/svg" xmlns:xlink="http://www.w3.org/1999/xlink" x="0px" y="0px"
	 viewBox="0 0 273.7 198" enable-background="new 0 0 273.7 198" xml:space="preserve">
<g>
	<path fill="#EFEFE1" d="M214.6,110.9"/>
	<path fill="#EFEFE1" d="M246.3,0.8c-32.5-5.5-59.7,19-69.3,34.4c-12.1-2.9-25.6-4.2-39.7-4.2c-14.4,0-28.1,1.3-40.4,4.4l0,0
		C87.3,20,60.1-4.7,27.5,0.8C12.9,30.4,44.8,93.1,41.8,110.2l0,0c5.9,49.2,63.6,87.8,95.5,87.8c27.8,0,88.9-38.4,95.4-87.5
		C232.1,76.1,260.9,30.3,246.3,0.8z"/>
	<path fill="#BB988A" d="M83.7,41.2c0,0-24.2-45.9-53.3-35.6c-9.2,18.9,9.4,63.2,14.8,85.3C53.7,58.2,83.7,41.2,83.7,41.2z"/>
	<path fill="#BB988A" d="M192.3,43c0,0,22-47.7,51.1-37.4c9.2,18.9-5.4,60.7-14.8,85.3C220.1,58.2,192.3,43,192.3,43z"/>
	<path fill="#D4D3C9" d="M90.5,157.8c0,0,31.5-18.2,32.6-34.7c1-16.4-3.7-44.1-8.3-49.3c-4.6-5.1-41,10.3-41,10.3s-6.7,7.5-7.7,11.7
		C65.1,100.1,82.1,151.5,90.5,157.8"/>
	<path fill="#D4D3C9" d="M183.5,157.8c0,0-31.5-18.2-32.6-34.7s0.4-45.2,5-50.3c4.6-5.1,44.3,11.3,44.3,11.3s6.7,7.5,7.7,11.7
		C208.9,100.1,192,151.5,183.5,157.8"/>
	<path fill="#6BA8C0" d="M120.3,120.6c0,0-15.2,13.6-27.2,9.7c-12-3.9-16.2-24-16.2-24s15.2-13.6,27.2-9.7
		C116.1,100.6,120.3,120.6,120.3,120.6z"/>
	<path fill="#6BA8C0" d="M153.4,120.6c0,0,15.2,13.6,27.2,9.7c12-3.9,16.2-24,16.2-24s-15.2-13.6-27.2-9.7
		C157.6,100.6,153.4,120.6,153.4,120.6z"/>
	<path fill="#222B2D" d="M183.2,113.4c0,7.2-8.1,13.1-8.1,13.1s-8.1-5.9-8.1-13.1s8.1-13.1,8.1-13.1S183.2,106.2,183.2,113.4z"/>
	<path fill="#222B2D" d="M106.7,113.4c0,7.2-8.1,13.1-8.1,13.1s-8.1-5.9-8.1-13.1s8.1-13.1,8.1-13.1S106.7,106.2,106.7,113.4z"/>
	<path fill="#FFFFFF" d="M102.1,157.8"/>
	<ellipse fill="#D4D3C9" cx="136.9" cy="168.6" rx="22.1" ry="13.6"/>
	
		<ellipse transform="matrix(0.9937 0.1122 -0.1122 0.9937 19.0016 -11.6799)" fill="#F8F8EC" cx="113.3" cy="163" rx="23.6" ry="13.4"/>
	
		<ellipse transform="matrix(0.9931 -0.1175 0.1175 0.9931 -18.0341 19.994)" fill="#F8F8EC" cx="160.6" cy="163" rx="23.6" ry="13.4"/>
	<path fill="#F27957" d="M147.5,157.5c0,4.3-10.6,7.9-10.6,7.9s-10.6-3.5-10.6-7.9s4.7-5.4,10.6-5.4S147.5,153.1,147.5,157.5z"/>
	<circle fill="#F8F8EC" cx="131.5" cy="161.6" r="3.7"/>
	<circle fill="#F8F8EC" cx="142.1" cy="161.6" r="3.7"/>
	<g>
		<path fill="#FFFFFF" d="M98.5,158.9c0,0-6.1-1.1-15.3-2.3c-2.3-0.3-4.8-0.6-7.4-0.9c-2.6-0.3-5.4-0.6-8.3-0.9
			c-2.9-0.3-5.9-0.5-8.9-0.8c-3-0.2-6.1-0.4-9.2-0.6c-3.1-0.1-6.2-0.3-9.2-0.3c-3,0-6-0.1-8.9-0.1c-1.5,0-2.9,0-4.3,0.1
			c-0.7,0-1.4,0-2.1,0c-0.7,0-1.4,0.1-2,0.1c-2.7,0.2-5.2,0.2-7.5,0.4c-2.3,0.2-4.4,0.4-6.3,0.6c-1.9,0.2-3.5,0.5-4.8,0.6
			c-2.7,0.4-4.2,0.6-4.2,0.6s1.5-0.2,4.2-0.6c1.3-0.2,3-0.5,4.8-0.7c1.9-0.2,4-0.4,6.3-0.6c2.3-0.2,4.8-0.3,7.5-0.5
			c0.7,0,1.3-0.1,2-0.1c0.7,0,1.4,0,2.1-0.1c1.4,0,2.8-0.1,4.3-0.1c2.9-0.1,5.9,0,9,0c3,0,6.1,0.2,9.2,0.2c3.1,0.1,6.2,0.3,9.2,0.5
			c3,0.2,6,0.4,8.9,0.7c2.9,0.2,5.7,0.5,8.3,0.8c2.7,0.3,5.1,0.6,7.5,0.8c9.2,1.1,15.3,2.2,15.3,2.2L98.5,158.9z"/>
	</g>
	<g>
		<path fill="#FFFFFF" d="M97.7,165.3c0,0-5.4-0.5-13.6-0.9c-2-0.1-4.2-0.2-6.6-0.2c-2.3-0.1-4.8-0.1-7.4-0.1
			c-2.6,0-5.2,0.1-7.9,0.1c-2.7,0.1-5.4,0.2-8.1,0.3c-2.7,0.2-5.4,0.3-8.1,0.6c-2.7,0.3-5.3,0.4-7.8,0.8c-1.3,0.2-2.5,0.3-3.7,0.5
			c-0.6,0.1-1.2,0.2-1.8,0.2c-0.6,0.1-1.2,0.2-1.8,0.3c-2.3,0.4-4.5,0.7-6.5,1.1c-2,0.4-3.8,0.8-5.4,1.2c-1.6,0.3-3,0.8-4.2,1.1
			c-2.3,0.6-3.6,1-3.6,1s1.3-0.4,3.6-1c1.2-0.3,2.5-0.8,4.1-1.1c1.6-0.4,3.4-0.8,5.4-1.2c2-0.4,4.2-0.8,6.5-1.2
			c0.6-0.1,1.2-0.2,1.8-0.3c0.6-0.1,1.2-0.2,1.8-0.3c1.2-0.2,2.5-0.3,3.7-0.5c2.5-0.4,5.2-0.6,7.8-0.9c2.7-0.3,5.4-0.4,8.1-0.7
			c2.7-0.1,5.4-0.3,8.1-0.4c2.7-0.1,5.3-0.2,7.9-0.2c2.6,0,5,0,7.4,0c2.3,0,4.6,0.1,6.6,0.1c8.2,0.2,13.6,0.7,13.6,0.7L97.7,165.3z"
			/>
	</g>
	<g>
		<path fill="#FFFFFF" d="M97.5,169.6c0,0-4.6,0.3-11.4,1.2c-1.7,0.2-3.6,0.5-5.5,0.8c-2,0.3-4,0.7-6.1,1c-2.1,0.4-4.3,0.8-6.5,1.3
			c-2.2,0.5-4.4,1-6.7,1.5c-2.2,0.6-4.4,1.1-6.6,1.8c-2.2,0.7-4.3,1.2-6.3,2c-1,0.4-2,0.7-3,1c-0.5,0.2-1,0.3-1.5,0.5
			c-0.5,0.2-0.9,0.4-1.4,0.6c-1.8,0.7-3.6,1.4-5.2,2.1c-1.6,0.7-3,1.4-4.3,2c-1.3,0.6-2.3,1.2-3.2,1.7c-1.8,1-2.8,1.5-2.8,1.5
			s1-0.6,2.8-1.5c0.9-0.5,1.9-1.1,3.2-1.7c1.3-0.6,2.7-1.3,4.2-2c1.6-0.7,3.3-1.4,5.1-2.2c0.5-0.2,0.9-0.4,1.4-0.6
			c0.5-0.2,1-0.3,1.4-0.5c1-0.4,2-0.7,3-1.1c2-0.8,4.2-1.4,6.3-2.1c2.2-0.7,4.4-1.2,6.6-1.9c2.2-0.6,4.5-1.1,6.7-1.6
			c2.2-0.5,4.4-1,6.5-1.4c2.1-0.4,4.2-0.8,6.1-1.1c1.9-0.4,3.8-0.6,5.5-0.9c6.8-1,11.4-1.4,11.4-1.4L97.5,169.6z"/>
	</g>
	<g>
		<path fill="#FFFFFF" d="M175,157.9c0,0,6.1-1.1,15.3-2.2c2.3-0.3,4.8-0.6,7.5-0.8c2.6-0.3,5.4-0.5,8.3-0.8
			c2.9-0.3,5.9-0.4,8.9-0.7c3-0.2,6.1-0.3,9.2-0.5c3.1-0.1,6.2-0.2,9.2-0.2c3,0,6.1-0.1,9,0c1.5,0,2.9,0.1,4.3,0.1
			c0.7,0,1.4,0,2.1,0.1c0.7,0,1.4,0.1,2,0.1c2.7,0.2,5.2,0.3,7.5,0.5c2.3,0.2,4.4,0.5,6.3,0.6c1.9,0.2,3.5,0.5,4.8,0.7
			c2.7,0.4,4.2,0.6,4.2,0.6s-1.5-0.2-4.2-0.6c-1.3-0.2-3-0.5-4.8-0.6c-1.9-0.2-4-0.4-6.3-0.6c-2.3-0.2-4.8-0.3-7.5-0.4
			c-0.7,0-1.3-0.1-2-0.1c-0.7,0-1.4,0-2.1,0c-1.4,0-2.8,0-4.3-0.1c-2.9-0.1-5.9,0-8.9,0.1c-3,0-6.1,0.2-9.2,0.3
			c-3.1,0.2-6.2,0.3-9.2,0.6c-3,0.3-6,0.4-8.9,0.8c-2.9,0.3-5.7,0.6-8.3,0.9c-2.6,0.3-5.1,0.6-7.4,0.9c-9.2,1.2-15.3,2.3-15.3,2.3
			L175,157.9z"/>
	</g>
	<g>
		<path fill="#FFFFFF" d="M175.9,164.3c0,0,5.4-0.5,13.6-0.7c2,0,4.3-0.1,6.6-0.1c2.3,0,4.8,0,7.4,0c2.6,0,5.2,0.1,7.9,0.2
			c2.7,0.1,5.4,0.3,8.1,0.4c2.7,0.2,5.4,0.4,8.1,0.7c2.7,0.3,5.3,0.5,7.8,0.9c1.3,0.2,2.5,0.4,3.7,0.5c0.6,0.1,1.2,0.2,1.8,0.3
			c0.6,0.1,1.2,0.2,1.8,0.3c2.3,0.4,4.5,0.8,6.5,1.2c2,0.5,3.8,0.9,5.4,1.2c1.6,0.4,3,0.8,4.1,1.1c2.3,0.7,3.6,1,3.6,1
			s-1.3-0.4-3.6-1c-1.2-0.3-2.5-0.7-4.2-1.1c-1.6-0.3-3.5-0.7-5.4-1.2c-2-0.4-4.2-0.7-6.5-1.1c-0.6-0.1-1.2-0.2-1.8-0.3
			c-0.6-0.1-1.2-0.2-1.8-0.2c-1.2-0.2-2.5-0.3-3.7-0.5c-2.5-0.4-5.2-0.5-7.8-0.8c-2.7-0.2-5.4-0.4-8.1-0.6c-2.7-0.1-5.4-0.2-8.1-0.3
			c-2.7,0-5.3-0.1-7.9-0.1c-2.5,0-5,0-7.4,0.1c-2.3,0-4.5,0.1-6.6,0.2c-8.2,0.3-13.6,0.9-13.6,0.9L175.9,164.3z"/>
	</g>
	<g>
		<path fill="#FFFFFF" d="M176.3,168.6c0,0,4.6,0.4,11.4,1.4c1.7,0.3,3.6,0.5,5.5,0.9c2,0.3,4,0.7,6.1,1.1c2.1,0.4,4.3,0.9,6.5,1.4
			c2.2,0.5,4.4,1.1,6.7,1.6c2.2,0.6,4.4,1.2,6.6,1.9c2.2,0.7,4.3,1.3,6.3,2.1c1,0.4,2,0.7,3,1.1c0.5,0.2,1,0.4,1.4,0.5
			c0.5,0.2,0.9,0.4,1.4,0.6c1.8,0.8,3.6,1.4,5.1,2.2c1.6,0.7,3,1.4,4.2,2c1.3,0.6,2.3,1.3,3.2,1.7c1.8,1,2.8,1.5,2.8,1.5
			s-1-0.5-2.8-1.5c-0.9-0.5-1.9-1.1-3.2-1.7c-1.3-0.6-2.7-1.2-4.3-2c-1.6-0.7-3.3-1.3-5.2-2.1c-0.5-0.2-0.9-0.4-1.4-0.6
			c-0.5-0.2-1-0.3-1.5-0.5c-1-0.3-2-0.7-3-1c-2-0.7-4.2-1.3-6.3-2c-2.2-0.6-4.4-1.2-6.6-1.8c-2.2-0.5-4.5-1.1-6.7-1.5
			c-2.2-0.4-4.4-0.9-6.5-1.3c-2.1-0.4-4.2-0.7-6.1-1c-1.9-0.3-3.8-0.6-5.5-0.8c-6.8-0.9-11.4-1.2-11.4-1.2L176.3,168.6z"/>
	</g>
</g>
</svg>
