<?xml version="1.0" encoding="utf-8"?>
<!-- Generator: Adobe Illustrator 18.0.0, SVG Export Plug-In . SVG Version: 6.00 Build 0)  -->
<!DOCTYPE svg PUBLIC "-//W3C//DTD SVG 1.1//EN" "http://www.w3.org/Graphics/SVG/1.1/DTD/svg11.dtd">
<svg version="1.1" id="Layer_1" xmlns="http://www.w3.org/2000/svg" xmlns:xlink="http://www.w3.org/1999/xlink" x="0px" y="0px"
	 viewBox="0 0 264.3 213.5" enable-background="new 0 0 264.3 213.5" xml:space="preserve">
<g>
	<path fill="#EFEFE1" d="M205.9,106.9"/>
	<path fill="#EFEFE1" d="M236.5,0.8C205.2-4.5,179,19.1,169.7,34c-11.7-2.8-24.6-4-38.3-4c-13.9,0-27.1,1.3-39,4.2l0,0
		C83.2,19.2,57-4.5,25.6,0.8C11.4,29.3,42.2,89.8,39.4,106.3l0,0c5.7,47.4,61.3,84.6,92.1,84.6c26.8,0,85.7-37.1,92-84.3
		C222.8,73.4,250.6,29.2,236.5,0.8z"/>
	<path fill="#BB988A" d="M79.7,39.7c0,0-23.4-44.3-51.4-34.3c-8.8,18.3,9.1,60.9,14.3,82.2C50.8,56.1,79.7,39.7,79.7,39.7z"/>
	<path fill="#BB988A" d="M184.5,41.4c0,0,21.2-46,49.2-36c8.8,18.3-5.2,58.5-14.3,82.2C211.3,56.1,184.5,41.4,184.5,41.4z"/>
	<path fill="#D4D3C9" d="M86.3,152.2c0,0,30.4-17.6,31.4-33.4c1-15.8-3.6-42.5-8-47.5S76.2,87.6,76.2,87.6s-11.8,5.1-12.8,9.1
		C62.4,100.8,78.2,146,86.3,152.2"/>
	<path fill="#D4D3C9" d="M176,152.2c0,0-30.4-17.6-31.4-33.4c-1-15.8,0.4-43.5,4.8-48.5s35.1,17.3,35.1,17.3s13.5,5.1,14.4,9.1
		S184.1,146,176,152.2"/>
	<path fill="#6BA8C0" d="M115,116.2c0,0-14.7,13.1-26.2,9.3s-15.6-23.1-15.6-23.1s14.7-13.1,26.2-9.3S115,116.2,115,116.2z"/>
	<path fill="#6BA8C0" d="M146.9,116.2c0,0,14.7,13.1,26.2,9.3c11.5-3.8,15.6-23.1,15.6-23.1s-14.7-13.1-26.2-9.3
		C151,97,146.9,116.2,146.9,116.2z"/>
	<path fill="#222B2D" d="M175.7,109.4c0,7-7.8,12.6-7.8,12.6s-7.8-5.7-7.8-12.6c0-7,7.8-12.6,7.8-12.6S175.7,102.4,175.7,109.4z"/>
	<path fill="#222B2D" d="M102,109.4c0,7-7.8,12.6-7.8,12.6s-7.8-5.7-7.8-12.6c0-7,7.8-12.6,7.8-12.6S102,102.4,102,109.4z"/>
	<path fill="#FFFFFF" d="M97.5,152.2"/>
	<ellipse fill="#D4D3C9" cx="131" cy="162.5" rx="21.3" ry="13.1"/>
	
		<ellipse transform="matrix(0.9752 -0.2214 0.2214 0.9752 -33.425 27.3923)" fill="#F8F8EC" cx="105.5" cy="162.8" rx="22.7" ry="12.9"/>
	
		<ellipse transform="matrix(0.9946 0.1033 -0.1033 0.9946 17.05 -15.2871)" fill="#F8F8EC" cx="156.1" cy="156.9" rx="22.8" ry="12.9"/>
	<path fill="#F27957" d="M141.2,151.8c0,4.2-10.2,7.6-10.2,7.6s-10.2-3.4-10.2-7.6s4.6-5.2,10.2-5.2
		C136.6,146.6,141.2,147.6,141.2,151.8z"/>
	<circle fill="#F8F8EC" cx="125.8" cy="155.8" r="3.6"/>
	<circle fill="#F8F8EC" cx="136.1" cy="155.8" r="3.6"/>
	<g>
		<path fill="#FFFFFF" d="M90.8,163.8c0,0-5.9,0.9-14.6,2.7c-4.4,0.9-9.5,2-14.9,3.4c-2.7,0.6-5.5,1.4-8.4,2.1
			c-2.8,0.8-5.7,1.6-8.6,2.4c-2.8,0.9-5.7,1.7-8.5,2.6c-2.8,1-5.5,1.8-8.2,2.8c-1.3,0.5-2.6,1-3.9,1.4c-1.3,0.5-2.5,0.9-3.7,1.4
			c-2.4,1-4.6,1.8-6.7,2.8c-2,0.9-3.9,1.8-5.6,2.5c-1.7,0.7-3,1.5-4.2,2.1C1.3,191.3,0,192,0,192s1.3-0.7,3.6-1.9
			c1.2-0.6,2.5-1.4,4.2-2.2c1.6-0.8,3.5-1.6,5.5-2.6c2-0.9,4.3-1.8,6.7-2.8c1.2-0.5,2.4-1,3.7-1.5c1.3-0.5,2.5-1,3.9-1.5
			c2.6-1,5.4-1.9,8.1-2.9c2.8-1,5.6-1.8,8.5-2.7c2.9-0.8,5.7-1.7,8.6-2.5c2.8-0.8,5.6-1.6,8.3-2.2c5.4-1.4,10.5-2.6,14.9-3.5
			c8.8-1.9,14.7-2.9,14.7-2.9L90.8,163.8z"/>
	</g>
	<g>
		<path fill="#FFFFFF" d="M92.1,169.9c0,0-5.1,1.2-12.6,3.5c-1.9,0.6-3.9,1.2-6.1,1.9c-2.1,0.7-4.4,1.5-6.7,2.3
			c-2.3,0.8-4.7,1.7-7.1,2.6c-2.4,0.9-4.8,1.9-7.3,2.9c-2.4,1-4.8,2-7.2,3.1c-2.3,1.1-4.7,2.1-6.9,3.2c-1.1,0.5-2.2,1.1-3.2,1.6
			c-1.1,0.5-2.1,1-3.1,1.6c-2,1.1-3.9,2.1-5.6,3.1c-1.7,1-3.2,2-4.6,2.8c-1.4,0.8-2.5,1.7-3.4,2.3c-1.9,1.3-3,2-3,2s1.1-0.8,3-2.1
			c1-0.6,2.1-1.5,3.4-2.3c1.4-0.8,2.9-1.8,4.6-2.9c1.7-1,3.6-2,5.5-3.2c1-0.6,2-1.1,3.1-1.6c1.1-0.5,2.1-1.1,3.2-1.7
			c2.2-1.2,4.5-2.2,6.8-3.3c2.3-1.1,4.8-2.1,7.2-3.2c2.4-1,4.9-2,7.3-2.9c2.4-0.9,4.8-1.9,7.1-2.7c2.3-0.8,4.6-1.6,6.7-2.3
			c2.1-0.7,4.2-1.4,6-2c7.5-2.4,12.6-3.7,12.6-3.7L92.1,169.9z"/>
	</g>
	<g>
		<path fill="#FFFFFF" d="M93.2,173.9c0,0-4.1,1.7-10,4.7c-1.5,0.8-3.1,1.6-4.7,2.5c-1.7,0.9-3.4,1.9-5.2,2.9
			c-1.8,1-3.6,2.1-5.5,3.2c-1.9,1.1-3.7,2.3-5.6,3.5c-1.8,1.3-3.7,2.4-5.5,3.7c-1.7,1.3-3.5,2.5-5.1,3.8c-0.8,0.6-1.6,1.3-2.4,1.9
			c-0.4,0.3-0.8,0.6-1.2,0.9c-0.4,0.3-0.7,0.6-1.1,0.9c-1.4,1.3-2.8,2.4-4,3.5c-1.2,1.2-2.3,2.2-3.3,3.2c-1,0.9-1.7,1.9-2.4,2.6
			c-1.3,1.4-2.1,2.3-2.1,2.3s0.7-0.8,2-2.3c0.7-0.7,1.4-1.6,2.4-2.6c1-1,2-2,3.2-3.2c1.2-1.2,2.6-2.3,4-3.6c0.4-0.3,0.7-0.6,1.1-1
			c0.4-0.3,0.8-0.6,1.2-0.9c0.8-0.6,1.6-1.3,2.4-1.9c1.6-1.3,3.4-2.6,5.1-3.9c1.8-1.3,3.6-2.5,5.4-3.8c1.9-1.2,3.7-2.4,5.6-3.6
			c1.9-1.1,3.7-2.3,5.5-3.3c1.8-1.1,3.5-2.1,5.2-3c1.7-0.9,3.3-1.8,4.7-2.6c5.9-3.1,10-4.9,10-4.9L93.2,173.9z"/>
	</g>
	<g>
		<path fill="#FFFFFF" d="M170.7,155.2c0,0,6,0.3,14.9,1.2c4.5,0.5,9.7,1,15.2,1.8c2.8,0.4,5.6,0.8,8.6,1.3c2.9,0.5,5.9,1,8.8,1.5
			c2.9,0.6,5.9,1.1,8.8,1.8c2.9,0.7,5.7,1.2,8.4,1.9c1.4,0.3,2.7,0.7,4,1c1.3,0.3,2.6,0.7,3.8,1c2.5,0.7,4.8,1.4,7,2.1
			c2.1,0.7,4.1,1.4,5.8,1.9c1.7,0.6,3.2,1.2,4.4,1.7c2.4,0.9,3.8,1.5,3.8,1.5s-1.4-0.5-3.9-1.5c-1.2-0.4-2.7-1.1-4.4-1.6
			c-1.7-0.6-3.7-1.2-5.8-1.9c-2.1-0.7-4.5-1.3-7-2c-1.2-0.4-2.5-0.7-3.8-1c-1.3-0.3-2.7-0.6-4-1c-2.7-0.7-5.6-1.2-8.4-1.8
			c-2.9-0.6-5.8-1.1-8.8-1.7c-3-0.5-5.9-1-8.8-1.4c-2.9-0.4-5.8-0.9-8.6-1.2c-5.6-0.7-10.8-1.2-15.2-1.7c-8.9-0.8-14.9-1-14.9-1
			L170.7,155.2z"/>
	</g>
	<g>
		<path fill="#FFFFFF" d="M170.2,161.5c0,0,5.2,0.7,13,2.2c1.9,0.4,4,0.8,6.2,1.3c2.2,0.5,4.5,1,6.9,1.6c2.4,0.5,4.9,1.2,7.4,1.8
			c2.5,0.7,5,1.4,7.6,2.1c2.5,0.8,5,1.5,7.5,2.3c2.4,0.9,4.9,1.6,7.2,2.5c1.2,0.4,2.3,0.9,3.4,1.3c1.1,0.4,2.2,0.8,3.2,1.3
			c2.1,0.9,4.1,1.7,5.9,2.5c1.8,0.8,3.4,1.6,4.9,2.3c1.4,0.7,2.6,1.4,3.7,1.9c2,1.1,3.2,1.7,3.2,1.7s-1.2-0.6-3.2-1.7
			c-1-0.5-2.2-1.2-3.7-1.9c-1.5-0.7-3.1-1.4-4.9-2.3c-1.8-0.8-3.8-1.6-5.9-2.4c-1-0.4-2.1-0.9-3.2-1.2c-1.1-0.4-2.3-0.8-3.4-1.2
			c-2.3-0.9-4.8-1.6-7.2-2.4c-2.5-0.8-5-1.5-7.5-2.2c-2.5-0.7-5.1-1.4-7.6-2c-2.5-0.6-5-1.2-7.4-1.8c-2.4-0.5-4.7-1-6.9-1.5
			c-2.2-0.5-4.3-0.8-6.2-1.2c-7.8-1.4-13-2.1-13-2.1L170.2,161.5z"/>
	</g>
	<g>
		<path fill="#FFFFFF" d="M169.8,165.6c0,0,4.3,1.3,10.5,3.7c1.5,0.6,3.2,1.3,5,2c1.8,0.7,3.6,1.5,5.5,2.4c1.9,0.8,3.8,1.8,5.8,2.7
			c2,0.9,3.9,2,5.9,2.9c1.9,1.1,3.9,2.1,5.8,3.2c1.9,1.1,3.8,2.1,5.5,3.3c0.9,0.6,1.7,1.1,2.6,1.6c0.4,0.3,0.8,0.5,1.3,0.8
			c0.4,0.3,0.8,0.6,1.2,0.8c1.5,1.1,3.1,2.1,4.4,3.1c1.3,1,2.5,2,3.6,2.8c1.1,0.8,1.9,1.7,2.6,2.3c1.4,1.3,2.3,2,2.3,2
			s-0.8-0.7-2.3-2c-0.7-0.6-1.6-1.4-2.7-2.3c-1.1-0.8-2.3-1.7-3.6-2.8c-1.3-1-2.8-2-4.4-3.1c-0.4-0.3-0.8-0.5-1.2-0.8
			c-0.4-0.3-0.8-0.5-1.3-0.8c-0.8-0.5-1.7-1.1-2.6-1.6c-1.7-1.1-3.7-2.1-5.5-3.2c-1.9-1.1-3.9-2-5.8-3.1c-2-1-4-1.9-6-2.9
			c-2-0.9-3.9-1.8-5.8-2.6c-1.9-0.8-3.8-1.6-5.5-2.3c-1.8-0.7-3.5-1.3-5-1.9c-6.2-2.3-10.5-3.6-10.5-3.6L169.8,165.6z"/>
	</g>
</g>
</svg>
