<?xml version="1.0" encoding="utf-8"?>
<!-- Generator: Adobe Illustrator 18.0.0, SVG Export Plug-In . SVG Version: 6.00 Build 0)  -->
<!DOCTYPE svg PUBLIC "-//W3C//DTD SVG 1.1//EN" "http://www.w3.org/Graphics/SVG/1.1/DTD/svg11.dtd">
<svg version="1.1" id="Layer_1" xmlns="http://www.w3.org/2000/svg" xmlns:xlink="http://www.w3.org/1999/xlink" x="0px" y="0px"
	 viewBox="0 0 274.5 217.7" enable-background="new 0 0 274.5 217.7" xml:space="preserve">
<path fill="#EFEFE1" d="M209.9,109"/>
<path fill="#EFEFE1" d="M241.1,0.8c-31.9-5.4-58.6,18.7-68.1,33.8c-11.9-2.8-25.1-4.1-39.1-4.1c-14.2,0-27.7,1.3-39.7,4.3l0,0
	C84.9,19.6,58.1-4.6,26,0.8C11.7,29.9,43,91.5,40.1,108.3l0,0c5.8,48.3,62.5,86.3,93.8,86.3c27.3,0,87.3-37.8,93.8-86
	C227.2,74.8,255.5,29.8,241.1,0.8z"/>
<path fill="#BB988A" d="M81.3,40.5c0,0-23.8-45.1-52.4-35c-9,18.6,9.3,62.1,14.6,83.8C51.8,57.2,81.3,40.5,81.3,40.5z"/>
<path fill="#BB988A" d="M188.1,42.2c0,0,21.6-46.8,50.2-36.7c9,18.6-5.3,59.7-14.6,83.8C215.3,57.2,188.1,42.2,188.1,42.2z"/>
<path fill="#D4D3C9" d="M88,155.1c0,0,31-17.9,32-34.1s-3.7-43.4-8.1-48.4c-4.5-5-34.2,16.6-34.2,16.6s-12.1,5.2-13.1,9.3
	C63.6,102.7,79.7,148.9,88,155.1"/>
<path fill="#D4D3C9" d="M179.4,155.1c0,0-31-17.9-32-34.1c-1-16.1,0.4-44.4,4.9-49.4c4.5-5,35.8,17.7,35.8,17.7s13.7,5.2,14.7,9.3
	C203.8,102.7,187.7,148.9,179.4,155.1"/>
<path fill="#6BA8C0" d="M117.3,118.5c0,0-15,13.4-26.8,9.5c-11.8-3.9-15.9-23.5-15.9-23.5s15-13.4,26.8-9.5
	C113.2,98.8,117.3,118.5,117.3,118.5z"/>
<path fill="#6BA8C0" d="M149.8,118.5c0,0,15,13.4,26.8,9.5c11.8-3.9,15.9-23.5,15.9-23.5s-15-13.4-26.8-9.5
	C153.9,98.8,149.8,118.5,149.8,118.5z"/>
<path fill="#222B2D" d="M179.1,111.5c0,7.1-8,12.9-8,12.9s-8-5.8-8-12.9c0-7.1,8-12.9,8-12.9S179.1,104.4,179.1,111.5z"/>
<path fill="#222B2D" d="M103.9,111.5c0,7.1-8,12.9-8,12.9s-8-5.8-8-12.9c0-7.1,8-12.9,8-12.9S103.9,104.4,103.9,111.5z"/>
<path fill="#FFFFFF" d="M99.4,155.1"/>
<ellipse fill="#D4D3C9" cx="133.6" cy="165.7" rx="21.7" ry="13.4"/>
<ellipse transform="matrix(0.9752 -0.2214 0.2214 0.9752 -34.0719 27.9225)" fill="#F8F8EC" cx="107.5" cy="165.9" rx="23.2" ry="13.1"/>
<ellipse transform="matrix(0.9946 0.1033 -0.1033 0.9946 17.38 -15.583)" fill="#F8F8EC" cx="159.1" cy="160" rx="23.2" ry="13.2"/>
<path fill="#F27957" d="M143.9,154.7c0,4.3-10.4,7.7-10.4,7.7s-10.4-3.5-10.4-7.7s4.7-5.3,10.4-5.3S143.9,150.5,143.9,154.7z"/>
<circle fill="#F8F8EC" cx="128.3" cy="158.8" r="3.7"/>
<circle fill="#F8F8EC" cx="138.7" cy="158.8" r="3.7"/>
<g>
	<path fill="#FFFFFF" d="M92.5,166.9c0,0-6,0.9-14.9,2.8c-2.2,0.5-4.6,1-7.2,1.6c-2.6,0.6-5.2,1.2-8,1.9c-2.8,0.6-5.6,1.4-8.5,2.2
		c-2.9,0.8-5.8,1.6-8.7,2.5c-2.9,0.9-5.8,1.8-8.7,2.7c-2.8,1-5.7,1.8-8.3,2.8c-1.3,0.5-2.7,1-3.9,1.5c-1.3,0.5-2.5,0.9-3.8,1.4
		c-2.4,1-4.7,1.9-6.8,2.8c-2.1,0.9-4,1.8-5.7,2.6c-1.7,0.8-3.1,1.6-4.3,2.2C1.4,195,0,195.7,0,195.7s1.3-0.7,3.7-2
		c1.2-0.6,2.6-1.4,4.3-2.2c1.7-0.8,3.6-1.7,5.6-2.6c2.1-1,4.4-1.9,6.8-2.9c1.2-0.5,2.5-1,3.7-1.5c1.3-0.5,2.6-1,3.9-1.5
		c2.7-1,5.5-1.9,8.3-2.9c2.8-1,5.8-1.9,8.6-2.8c2.9-0.9,5.8-1.7,8.7-2.6c2.9-0.8,5.7-1.6,8.5-2.3c2.8-0.7,5.4-1.4,8-2
		c2.5-0.6,5-1.1,7.2-1.6c8.9-2,14.9-3,14.9-3L92.5,166.9z"/>
</g>
<g>
	<path fill="#FFFFFF" d="M93.8,173.2c0,0-5.2,1.3-12.9,3.6c-1.9,0.6-4,1.2-6.2,1.9c-2.2,0.7-4.5,1.5-6.8,2.3
		c-2.4,0.8-4.8,1.7-7.3,2.6c-2.5,0.9-4.9,1.9-7.4,2.9c-2.5,1.1-4.9,2.1-7.3,3.1c-2.4,1.1-4.8,2.1-7,3.3c-1.1,0.6-2.2,1.1-3.3,1.6
		c-0.5,0.3-1.1,0.5-1.6,0.8c-0.5,0.3-1,0.6-1.5,0.8c-2,1.1-3.9,2.1-5.7,3.2c-1.7,1-3.3,2-4.7,2.9c-1.4,0.8-2.5,1.7-3.5,2.4
		c-1.9,1.3-3,2.1-3,2.1s1.1-0.8,3-2.1c1-0.7,2.1-1.5,3.5-2.4c1.4-0.9,2.9-1.8,4.6-2.9c1.7-1.1,3.6-2.1,5.6-3.2
		c0.5-0.3,1-0.6,1.5-0.9c0.5-0.3,1.1-0.5,1.6-0.8c1.1-0.6,2.2-1.1,3.3-1.7c2.2-1.2,4.6-2.2,7-3.4c2.4-1.1,4.9-2.1,7.3-3.2
		c2.5-1,5-2,7.4-3c2.5-0.9,4.9-1.9,7.2-2.7c2.4-0.9,4.6-1.7,6.8-2.4c2.2-0.8,4.3-1.4,6.2-2c7.7-2.4,12.9-3.8,12.9-3.8L93.8,173.2z"
		/>
</g>
<g>
	<path fill="#FFFFFF" d="M95,177.2c0,0-4.1,1.8-10.2,4.8c-1.5,0.8-3.1,1.6-4.8,2.5c-1.7,0.9-3.5,1.9-5.3,2.9c-1.9,1-3.7,2.2-5.6,3.3
		c-1.9,1.2-3.8,2.4-5.7,3.6c-1.9,1.3-3.8,2.5-5.6,3.8c-1.8,1.3-3.6,2.5-5.2,3.9c-0.8,0.7-1.6,1.3-2.4,1.9c-0.4,0.3-0.8,0.6-1.2,0.9
		c-0.4,0.3-0.7,0.6-1.1,1c-1.5,1.3-2.9,2.4-4.1,3.6c-1.2,1.2-2.3,2.3-3.3,3.2c-1,1-1.8,1.9-2.4,2.6c-1.3,1.5-2.1,2.3-2.1,2.3
		s0.7-0.8,2.1-2.3c0.7-0.7,1.4-1.7,2.4-2.6c1-1,2.1-2.1,3.3-3.3c1.2-1.2,2.6-2.4,4.1-3.7c0.4-0.3,0.7-0.7,1.1-1
		c0.4-0.3,0.8-0.6,1.2-1c0.8-0.6,1.6-1.3,2.4-2c1.6-1.4,3.4-2.6,5.2-4c1.8-1.3,3.7-2.6,5.5-3.9c1.9-1.2,3.8-2.5,5.7-3.7
		c1.9-1.2,3.7-2.3,5.6-3.4c1.8-1.1,3.6-2.1,5.3-3c1.7-1,3.3-1.8,4.8-2.6c6-3.2,10.2-5,10.2-5L95,177.2z"/>
</g>
<g>
	<path fill="#FFFFFF" d="M179.1,161c0,0,6.1,0.3,15.2,1.2c2.3,0.2,4.7,0.5,7.3,0.8c2.6,0.3,5.4,0.7,8.2,1c2.8,0.4,5.8,0.9,8.7,1.3
		c3,0.5,6,1,9,1.5c3,0.6,6,1.1,8.9,1.8c2.9,0.7,5.8,1.2,8.6,2c1.4,0.4,2.8,0.7,4.1,1c0.7,0.2,1.3,0.3,2,0.5c0.6,0.2,1.3,0.4,1.9,0.6
		c2.5,0.7,4.9,1.4,7.1,2.1c2.2,0.7,4.2,1.4,5.9,2c1.8,0.6,3.3,1.2,4.5,1.7c2.5,1,3.9,1.5,3.9,1.5s-1.4-0.5-3.9-1.5
		c-1.3-0.5-2.7-1.1-4.5-1.7c-1.8-0.6-3.8-1.2-5.9-1.9c-2.2-0.7-4.6-1.3-7.1-2c-0.6-0.2-1.3-0.4-1.9-0.5c-0.7-0.2-1.3-0.3-2-0.5
		c-1.3-0.3-2.7-0.7-4.1-1c-2.8-0.7-5.7-1.2-8.6-1.9c-2.9-0.6-5.9-1.1-8.9-1.7c-3-0.5-6-1-9-1.4c-3-0.4-5.9-0.9-8.7-1.2
		c-2.8-0.4-5.6-0.7-8.2-1c-2.6-0.3-5.1-0.5-7.3-0.7c-9.1-0.8-15.2-1.1-15.2-1.1L179.1,161z"/>
</g>
<g>
	<path fill="#FFFFFF" d="M173.5,164.6c0,0,5.3,0.7,13.2,2.3c2,0.4,4.1,0.8,6.4,1.3c2.3,0.5,4.6,1,7.1,1.6c2.5,0.6,5,1.2,7.5,1.9
		c2.6,0.7,5.1,1.4,7.7,2.1c2.6,0.8,5.1,1.5,7.6,2.4c2.5,0.9,5,1.6,7.3,2.5c1.2,0.4,2.3,0.9,3.5,1.3c0.6,0.2,1.1,0.4,1.7,0.6
		c0.5,0.2,1.1,0.5,1.6,0.7c2.1,0.9,4.2,1.7,6,2.6c1.8,0.9,3.5,1.7,5,2.4c1.5,0.7,2.7,1.4,3.7,2c2.1,1.1,3.2,1.8,3.2,1.8
		s-1.2-0.6-3.3-1.7c-1-0.5-2.3-1.3-3.8-1.9c-1.5-0.7-3.2-1.5-5-2.3c-1.8-0.8-3.9-1.6-6-2.5c-0.5-0.2-1.1-0.4-1.6-0.7
		c-0.6-0.2-1.1-0.4-1.7-0.6c-1.1-0.4-2.3-0.8-3.5-1.3c-2.4-0.9-4.8-1.6-7.3-2.5c-2.5-0.8-5.1-1.5-7.7-2.3c-2.6-0.7-5.2-1.4-7.7-2.1
		c-2.6-0.6-5.1-1.3-7.5-1.8c-2.5-0.6-4.8-1.1-7.1-1.5c-2.3-0.5-4.4-0.9-6.4-1.2c-7.9-1.4-13.2-2.1-13.2-2.1L173.5,164.6z"/>
</g>
<g>
	<path fill="#FFFFFF" d="M173.1,168.8c0,0,4.3,1.3,10.7,3.8c1.6,0.6,3.3,1.3,5.1,2c1.8,0.7,3.7,1.5,5.6,2.4c2,0.8,3.9,1.8,5.9,2.7
		c2,1,4,2,6,3c2,1.1,4,2.1,5.9,3.2c1.9,1.1,3.8,2.2,5.6,3.3c0.9,0.6,1.8,1.1,2.6,1.7c0.4,0.3,0.9,0.5,1.3,0.8
		c0.4,0.3,0.8,0.6,1.2,0.8c1.6,1.1,3.1,2.1,4.5,3.2c1.3,1,2.6,2,3.6,2.9c1.1,0.9,1.9,1.7,2.7,2.3c1.5,1.3,2.3,2.1,2.3,2.1
		s-0.9-0.7-2.3-2c-0.8-0.6-1.6-1.5-2.7-2.3c-1.1-0.8-2.3-1.8-3.7-2.8c-1.3-1-2.9-2-4.5-3.1c-0.4-0.3-0.8-0.6-1.2-0.8
		c-0.4-0.3-0.9-0.5-1.3-0.8c-0.9-0.5-1.8-1.1-2.7-1.6c-1.8-1.1-3.7-2.1-5.6-3.3c-1.9-1.1-4-2.1-6-3.1c-2-1-4.1-2-6.1-2.9
		c-2-0.9-4-1.8-6-2.6c-1.9-0.8-3.8-1.6-5.6-2.3c-1.8-0.7-3.5-1.4-5.1-2c-6.3-2.4-10.7-3.6-10.7-3.6L173.1,168.8z"/>
</g>
</svg>
