<?xml version="1.0" encoding="utf-8"?>
<!-- Generator: Adobe Illustrator 18.0.0, SVG Export Plug-In . SVG Version: 6.00 Build 0)  -->
<!DOCTYPE svg PUBLIC "-//W3C//DTD SVG 1.1//EN" "http://www.w3.org/Graphics/SVG/1.1/DTD/svg11.dtd">
<svg version="1.1" id="Layer_1" xmlns="http://www.w3.org/2000/svg" xmlns:xlink="http://www.w3.org/1999/xlink" x="0px" y="0px"
	 viewBox="0 0 453.2 792" enable-background="new 0 0 453.2 792" xml:space="preserve">
<g>
	<path fill="#D4D3C9" d="M287.4,614.1c0,0,135.8-41.2,32,131.7c0,0,89.5,9.1,76,27.9c-13.5,18.6-61.8,7.7-79.8,4.9
		c-18.1-2.8-73.5-12.2-73.5-12.2L287.4,614.1z"/>
	<path fill="#D4D3C9" d="M161.1,614.1c0,0-135.8-41.2-32,131.7c0,0-89.5,9.1-76,27.9c13.5,18.6,61.8,7.7,79.8,4.9
		s73.5-12.2,73.5-12.2L161.1,614.1z"/>
	<path fill="#D4D3C9" d="M177.9,291C21,581,157.3,756.2,225.1,756.2S434.4,559.7,284.2,284"/>
	<polygon fill="#F8F8EC" points="123.7,407.4 192.9,441.5 193.6,758.5 150.5,760 	"/>
	<polygon fill="#F8F8EC" points="274.8,446.9 331.7,416.3 295.6,760.8 253.3,757.2 	"/>
	<path fill="#F8F8EC" d="M338.2,770.2c-15.5,39.9-26-2.3-26-2.3S307,791,292.3,791c-15.5,0-20.6-23.9-20.6-23.9s-6.1,39.4-24.4,5.4
		c-9.2-17.3,9.2-34.8,44.8-34.8S345.2,751.9,338.2,770.2z"/>
	<path fill="#F8F8EC" d="M208.6,771.9c-15.5,39.9-26-2.3-26-2.3s-5.1,23.1-19.8,23.1c-15.5,0-20.6-23.9-20.6-23.9
		s-6.1,39.4-24.4,5.4c-9.2-17.3,9.2-34.8,44.8-34.8S215.7,753.6,208.6,771.9z"/>
	<g>
		<path fill="#EFEFE1" d="M227.5,320.2"/>
		<path fill="#EFEFE1" d="M227.5,320.2"/>
	</g>
	<path fill="#EFEFE1" d="M224.4,374.1"/>
	<path fill="#010101" d="M224.7,314.7"/>
	<path fill="#F8F8EC" d="M294.5,303.5c0,0,58.2,73,47.2,140.5c0,0-3,1.5-18.5-24.6c0,0,5.8,28.5-4.3,44.8c0,0,4.1-2.8-10.1-14.7
		c0,0,2.8,16.7-7.6,32.3c0,0-1.6-7.9-18.3-17.5c0,0-2.1,17.6-15.2,31.8c0,0-2-14-14-28.4c0,0,4.3,17,0,27.4c0,0,1.5-3.6-3.1-7.3
		c0,0-0.7,15-20.3,27.9h0.8C211.5,503,210.9,488,210.9,488c-4.6,3.8-3.1,7.3-3.1,7.3c-4.3-10.2,0-27.4,0-27.4
		c-12,14.3-14,28.4-14,28.4c-13.2-14.2-15.2-31.8-15.2-31.8c-16.7,9.7-18.3,17.5-18.3,17.5c-10.4-15.7-7.6-32.3-7.6-32.3
		c-14.2,11.9-10.1,14.7-10.1,14.7c-10.1-16.3-6.9-44.8-6.9-44.8c-15.7,26-16.2,24.6-16.2,24.6c-10.9-67.6,42.2-140.5,42.2-140.5"/>
	<path fill="none" stroke="#D4D3C9" stroke-miterlimit="10" d="M341.6,444c0,0-3,1.5-18.5-24.6c0,0,5.8,28.5-4.3,44.8
		c0,0,4.1-2.8-10.1-14.7c0,0,2.8,16.7-7.6,32.3c0,0-1.6-7.9-18.3-17.5c0,0-2.1,17.6-15.2,31.8c0,0-2-14-14-28.4c0,0,4.3,17,0,27.4
		c0,0,1.5-3.6-3.1-7.3c0,0-0.7,15-20.3,27.9h0.8C211.5,503,210.9,488,210.9,488c-4.6,3.8-3.1,7.3-3.1,7.3c-4.3-10.2,0-27.4,0-27.4
		c-12,14.3-14,28.4-14,28.4c-13.2-14.2-15.2-31.8-15.2-31.8c-16.7,9.7-18.3,17.5-18.3,17.5c-10.4-15.7-7.6-32.3-7.6-32.3
		c-14.2,11.9-10.1,14.7-10.1,14.7c-10.1-16.3-6.9-44.8-6.9-44.8c-15.7,26-16.2,24.6-16.2,24.6"/>
</g>
<g>
	<path fill="#EFEFE1" d="M356,182.2"/>
	<path fill="#EFEFE1" d="M408.4,0.7C354.8-8.4,310,32,294.1,57.4c-19.9-4.8-42.2-6.9-65.5-6.9c-23.7,0-46.3,2.1-66.6,7.3l0,0
		c-15.8-25.4-60.8-66.1-114.6-57C23.4,49.6,76,153,71.2,181.2l0,0c9.7,81.1,104.9,144.7,157.4,144.7c45.8,0,146.6-63.3,157.3-144.3
		C385,125,432.5,49.3,408.4,0.7z"/>
	<path fill="#BB988A" d="M140.2,67.4c0,0-39.9-75.7-87.9-58.7C37.1,39.9,67.8,112.9,76.7,149.4C90.9,95.3,140.2,67.4,140.2,67.4z"/>
	<path fill="#BB988A" d="M319.4,70.2c0,0,36.3-78.6,84.2-61.7c15.2,31.2-8.9,100.1-24.4,140.6C365.2,95.3,319.4,70.2,319.4,70.2z"/>
	<path fill="#D4D3C9" d="M151.5,259.6c0,0,51.9-30,53.7-57.2c1.6-27-6.1-72.7-13.7-81.3c-7.6-8.4-67.6,17-67.6,17
		s-11,12.4-12.7,19.3C109.7,164.4,137.5,249.1,151.5,259.6"/>
	<path fill="#D4D3C9" d="M304.9,259.6c0,0-51.9-30-53.7-57.2c-1.8-27.2,0.7-74.5,8.2-82.9c7.6-8.4,73,18.6,73,18.6
		s11,12.4,12.7,19.3C346.7,164.4,318.7,249.1,304.9,259.6"/>
	<path fill="#6BA8C0" d="M200.7,198.2c0,0-25.1,22.4-44.8,16c-19.8-6.4-26.7-39.6-26.7-39.6s25.1-22.4,44.8-15.8
		C193.7,165.2,200.7,198.2,200.7,198.2z"/>
	<path fill="#6BA8C0" d="M255.1,198.2c0,0,25.1,22.4,44.8,16c19.8-6.4,26.7-39.6,26.7-39.6s-25.1-22.4-44.8-15.8
		C262,165.2,255.1,198.2,255.1,198.2z"/>
	<path fill="#222B2D" d="M304.2,186.5c0,11.9-13.4,21.6-13.4,21.6s-13.4-9.7-13.4-21.6s13.4-21.6,13.4-21.6S304.2,174.4,304.2,186.5
		z"/>
	<path fill="#222B2D" d="M178.2,186.5c0,11.9-13.4,21.6-13.4,21.6s-13.4-9.7-13.4-21.6s13.4-21.6,13.4-21.6S178.2,174.4,178.2,186.5
		z"/>
	<path fill="#FFFFFF" d="M170.7,259.6"/>
	<ellipse fill="#D4D3C9" cx="228" cy="277.3" rx="36.4" ry="22.4"/>
	
		<ellipse transform="matrix(0.1122 -0.9937 0.9937 0.1122 -98.606 425.7523)" fill="#F8F8EC" cx="189" cy="268.1" rx="22.1" ry="38.9"/>
	
		<ellipse transform="matrix(-0.1175 -0.9931 0.9931 -0.1175 32.0999 564.656)" fill="#F8F8EC" cx="266.9" cy="268.1" rx="22.1" ry="38.9"/>
	<path fill="#F27957" d="M245.3,259c0,7.1-17.5,13-17.5,13s-17.5-5.8-17.5-13c0-7.3,7.7-8.9,17.5-8.9
		C237.4,250.1,245.3,251.9,245.3,259z"/>
	<circle fill="#F8F8EC" cx="219.1" cy="265.7" r="6.1"/>
	<circle fill="#F8F8EC" cx="236.6" cy="265.7" r="6.1"/>
	<g>
		<path fill="#FFFFFF" d="M164.7,261.3c0,0-10.1-1.8-25.2-3.8c-3.8-0.5-7.9-1-12.2-1.5c-4.3-0.5-8.9-1-13.7-1.5
			c-4.8-0.5-9.7-0.8-14.7-1.3c-4.9-0.3-10.1-0.7-15.2-1c-5.1-0.2-10.2-0.5-15.2-0.5c-4.9,0-9.9-0.2-14.7-0.2c-2.5,0-4.8,0-7.1,0.2
			c-1.2,0-2.3,0-3.5,0c-1.2,0-2.3,0.2-3.3,0.2c-4.5,0.3-8.6,0.3-12.4,0.7c-3.8,0.3-7.3,0.7-10.4,1c-3.1,0.3-5.8,0.8-7.9,1
			c-4.5,0.7-6.9,1-6.9,1s2.5-0.3,6.9-1c2.1-0.3,4.9-0.8,7.9-1.2c3.1-0.3,6.6-0.7,10.4-1c3.8-0.3,7.9-0.5,12.4-0.8
			c1.2,0,2.1-0.2,3.3-0.2c1.2,0,2.3,0,3.5-0.2c2.3,0,4.6-0.2,7.1-0.2c4.8-0.2,9.7,0,14.8,0c4.9,0,10.1,0.3,15.2,0.3
			c5.1,0.2,10.2,0.5,15.2,0.8c4.9,0.3,9.9,0.7,14.7,1.2c4.8,0.3,9.4,0.8,13.7,1.3c4.5,0.5,8.4,1,12.4,1.3
			c15.2,1.8,25.2,3.6,25.2,3.6L164.7,261.3z"/>
	</g>
	<g>
		<path fill="#FFFFFF" d="M163.4,272c0,0-8.9-0.8-22.4-1.5c-3.3-0.2-6.9-0.3-10.9-0.3c-3.8-0.2-7.9-0.2-12.2-0.2
			c-4.3,0-8.6,0.2-13,0.2c-4.5,0.2-8.9,0.3-13.4,0.5c-4.5,0.3-8.9,0.5-13.4,1s-8.7,0.7-12.9,1.3c-2.1,0.3-4.1,0.5-6.1,0.8
			c-1,0.2-2,0.3-3,0.3c-1,0.2-2,0.3-3,0.5c-3.8,0.7-7.4,1.2-10.7,1.8c-3.3,0.7-6.3,1.3-8.9,2c-2.6,0.5-4.9,1.3-6.9,1.8
			c-3.8,1-5.9,1.6-5.9,1.6s2.1-0.7,5.9-1.6c2-0.5,4.1-1.3,6.8-1.8c2.6-0.7,5.6-1.3,8.9-2c3.3-0.7,6.9-1.3,10.7-2c1-0.2,2-0.3,3-0.5
			c1-0.2,2-0.3,3-0.5c2-0.3,4.1-0.5,6.1-0.8c4.1-0.7,8.6-1,12.9-1.5c4.5-0.5,8.9-0.7,13.4-1.2c4.5-0.2,8.9-0.5,13.4-0.7
			s8.7-0.3,13-0.3s8.2,0,12.2,0c3.8,0,7.6,0.2,10.9,0.2c13.5,0.3,22.4,1.2,22.4,1.2L163.4,272z"/>
	</g>
	<g>
		<path fill="#FFFFFF" d="M162.9,279.1c0,0-7.6,0.5-18.8,2c-2.8,0.3-5.9,0.8-9.1,1.3c-3.3,0.5-6.6,1.2-10.1,1.6
			c-3.5,0.7-7.1,1.3-10.7,2.1c-3.6,0.8-7.3,1.6-11,2.5c-3.6,1-7.3,1.8-10.9,3s-7.1,2-10.4,3.3c-1.6,0.7-3.3,1.2-4.9,1.6
			c-0.8,0.3-1.6,0.5-2.5,0.8c-0.8,0.3-1.5,0.7-2.3,1c-3,1.2-5.9,2.3-8.6,3.5c-2.6,1.2-4.9,2.3-7.1,3.3c-2.1,1-3.8,2-5.3,2.8
			c-3,1.6-4.6,2.5-4.6,2.5s1.6-1,4.6-2.5c1.5-0.8,3.1-1.8,5.3-2.8c2.1-1,4.5-2.1,6.9-3.3c2.6-1.2,5.4-2.3,8.4-3.6
			c0.8-0.3,1.5-0.7,2.3-1c0.8-0.3,1.6-0.5,2.3-0.8c1.6-0.7,3.3-1.2,4.9-1.8c3.3-1.3,6.9-2.3,10.4-3.5c3.6-1.2,7.3-2,10.9-3.1
			c3.6-1,7.4-1.8,11-2.6c3.6-0.8,7.3-1.6,10.7-2.3c3.5-0.7,6.9-1.3,10.1-1.8c3.1-0.7,6.3-1,9.1-1.5c11.2-1.6,18.8-2.3,18.8-2.3
			L162.9,279.1z"/>
	</g>
	<g>
		<path fill="#FFFFFF" d="M290.7,259.8c0,0,10.1-1.8,25.2-3.6c3.8-0.5,7.9-1,12.4-1.3c4.3-0.5,8.9-0.8,13.7-1.3
			c4.8-0.5,9.7-0.7,14.7-1.2c4.9-0.3,10.1-0.5,15.2-0.8c5.1-0.2,10.2-0.3,15.2-0.3c4.9,0,10.1-0.2,14.8,0c2.5,0,4.8,0.2,7.1,0.2
			c1.2,0,2.3,0,3.5,0.2c1.2,0,2.3,0.2,3.3,0.2c4.5,0.3,8.6,0.5,12.4,0.8c3.8,0.3,7.3,0.8,10.4,1c3.1,0.3,5.8,0.8,7.9,1.2
			c4.5,0.7,6.9,1,6.9,1s-2.5-0.3-6.9-1c-2.1-0.3-4.9-0.8-7.9-1c-3.1-0.3-6.6-0.7-10.4-1c-3.8-0.3-7.9-0.5-12.4-0.7
			c-1.2,0-2.1-0.2-3.3-0.2s-2.3,0-3.5,0c-2.3,0-4.6,0-7.1-0.2c-4.8-0.2-9.7,0-14.7,0.2c-4.9,0-10.1,0.3-15.2,0.5
			c-5.1,0.3-10.2,0.5-15.2,1c-4.9,0.5-9.9,0.7-14.7,1.3c-4.8,0.5-9.4,1-13.7,1.5c-4.3,0.5-8.4,1-12.2,1.5c-15.2,2-25.2,3.8-25.2,3.8
			L290.7,259.8z"/>
	</g>
	<g>
		<path fill="#FFFFFF" d="M292.3,270.4c0,0,8.9-0.8,22.4-1.2c3.3,0,7.1-0.2,10.9-0.2s7.9,0,12.2,0c4.3,0,8.6,0.2,13,0.3
			c4.5,0.2,8.9,0.5,13.4,0.7c4.5,0.3,8.9,0.7,13.4,1.2c4.5,0.5,8.7,0.8,12.9,1.5c2.1,0.3,4.1,0.7,6.1,0.8c1,0.2,2,0.3,3,0.5
			c1,0.2,2,0.3,3,0.5c3.8,0.7,7.4,1.3,10.7,2c3.3,0.8,6.3,1.5,8.9,2c2.6,0.7,4.9,1.3,6.8,1.8c3.8,1.2,5.9,1.6,5.9,1.6
			s-2.1-0.7-5.9-1.6c-2-0.5-4.1-1.2-6.9-1.8c-2.6-0.5-5.8-1.2-8.9-2c-3.3-0.7-6.9-1.2-10.7-1.8c-1-0.2-2-0.3-3-0.5
			c-1-0.2-2-0.3-3-0.3c-2-0.3-4.1-0.5-6.1-0.8c-4.1-0.7-8.6-0.8-12.9-1.3c-4.5-0.3-8.9-0.7-13.4-1c-4.5-0.2-8.9-0.3-13.4-0.5
			c-4.5,0-8.7-0.2-13-0.2c-4.1,0-8.2,0-12.2,0.2c-3.8,0-7.4,0.2-10.9,0.3c-13.5,0.5-22.4,1.5-22.4,1.5L292.3,270.4z"/>
	</g>
	<g>
		<path fill="#FFFFFF" d="M292.8,277.5c0,0,7.6,0.7,18.8,2.3c2.8,0.5,5.9,0.8,9.1,1.5c3.3,0.5,6.6,1.2,10.1,1.8
			c3.5,0.7,7.1,1.5,10.7,2.3c3.6,0.8,7.3,1.8,11,2.6c3.6,1,7.3,2,10.9,3.1c3.6,1.2,7.1,2.1,10.4,3.5c1.6,0.7,3.3,1.2,4.9,1.8
			c0.8,0.3,1.6,0.7,2.3,0.8c0.8,0.3,1.5,0.7,2.3,1c3,1.3,5.9,2.3,8.4,3.6c2.6,1.2,4.9,2.3,6.9,3.3c2.1,1,3.8,2.1,5.3,2.8
			c3,1.6,4.6,2.5,4.6,2.5s-1.6-0.8-4.6-2.5c-1.5-0.8-3.1-1.8-5.3-2.8c-2.1-1-4.5-2-7.1-3.3c-2.6-1.2-5.4-2.1-8.6-3.5
			c-0.8-0.3-1.5-0.7-2.3-1c-0.8-0.3-1.6-0.5-2.5-0.8c-1.6-0.5-3.3-1.2-4.9-1.6c-3.3-1.2-6.9-2.1-10.4-3.3c-3.6-1-7.3-2-10.9-3
			c-3.6-0.8-7.4-1.8-11-2.5c-3.6-0.7-7.3-1.5-10.7-2.1s-6.9-1.2-10.1-1.6c-3.1-0.5-6.3-1-9.1-1.3c-11.2-1.5-18.8-2-18.8-2
			L292.8,277.5z"/>
	</g>
</g>
</svg>
