<?xml version="1.0" encoding="utf-8"?>
<!-- Generator: Adobe Illustrator 18.0.0, SVG Export Plug-In . SVG Version: 6.00 Build 0)  -->
<!DOCTYPE svg PUBLIC "-//W3C//DTD SVG 1.1//EN" "http://www.w3.org/Graphics/SVG/1.1/DTD/svg11.dtd">
<svg version="1.1" id="Layer_1" xmlns="http://www.w3.org/2000/svg" xmlns:xlink="http://www.w3.org/1999/xlink" x="0px" y="0px"
	 viewBox="-220.1 0 1053.7 792" enable-background="new -220.1 0 1053.7 792" xml:space="preserve">
<g>
	<path fill="#F8F8EC" d="M525.6,389.6C552.4,300.5,567,1.8,506.4,0C448-1.8,338.5,232.7,338.5,232.7c-19.5,15.8-28.3,19.5-37.7,31.3
		c-9.4-12.2-18.2-15.5-37.7-31.3c0,0-81.5-234.5-139.9-232.7C62.7,1.8,49,300.5,76.1,389.6c0,0-45.9,189.2,26.8,308.1
		c33.2,54.1,90.6,93.7,188,94.3c97.3-0.6,156.9-40.1,192.5-94.3C561.8,578.8,525.6,389.6,525.6,389.6z"/>
	<g>
		<path fill="#EFEFE1" d="M126.6,472c0,0-28.3,80.3,37.1,121.1c65.4,40.8,74.8,167,136.3,158.8V292C300.2,292,160.3,303.8,126.6,472
			z"/>
		<path fill="#EFEFE1" d="M473.9,472C440.1,303.8,300.2,292,300.2,292v459.9c61.4,8.2,70.9-118,136.3-158.8
			C502.2,552.3,473.9,472,473.9,472z"/>
	</g>
	<ellipse fill="#010101" cx="300.5" cy="661.2" rx="44.4" ry="36.5"/>
	<path fill="none" stroke="#010101" stroke-width="3" stroke-miterlimit="10" d="M192.2,557.2"/>
	<path fill="none" stroke="#010101" stroke-width="3" stroke-miterlimit="10" d="M300.5,643.3"/>
	<ellipse fill="#010101" cx="203.8" cy="476" rx="23.1" ry="22.8"/>
	<ellipse fill="#010101" cx="385.7" cy="476" rx="23.1" ry="22.8"/>
	<path fill="#010101" d="M256.4,709.3c0,0,44.4,38.3,88.5,0"/>
	<path fill="#BB978A" d="M111.6,336.4c0,0,46.5-104.9,110.7-104.9c0,0-35.6-197.1-86.7-213.2S73.3,315.4,111.6,336.4z"/>
	<path fill="#BB978A" d="M491.8,330c0,0-46.5-104.9-110.7-104.9c0,0,68.1-199.8,119.2-215.9S530.2,309,491.8,330z"/>
	<path fill="#F8F8EC" d="M375.6,233.6c0,0,60.2-174.9,93.7-195.3c0,0-80,168.5-83.6,177.6c0,0,61.1-125.9,78.8-132
		c0,0-52.3,111.3-55.7,126.5c0,0,38.6-49.3,59.6-54.1c0,0-54.7,48.4-45.6,66c0,0,52-40.8,71.8-40.8c0,0-44.4,16.1-38.3,44.4
		c0,0,29.8-13.4,48.4-16.7c0,0-47.8,18.9-43.2,35.6c0,0,23.1-11.6,28.9-5.5c0,0-34.7,18.2-25.5,38.6c0,0,10-11.6,25.9-8.5
		c0.3-0.3-22.5,23.1-19.2,40.1c0,0,10.6-15.8,28.9-17.9c0,0-26.8,20.1-20.1,33.5"/>
	<path fill="#F8F8EC" d="M226.9,227.2c0,0-43.5-170.3-76.6-190.7c0,0,63.3,163.6,66.9,173.1c0,0-48.1-132.6-65.7-138.4
		c0,0,39.2,118,42.6,133.2c0,0-32.5-73.3-51.1-87.6c0,0,41.7,84.9,37.4,99.5c0,0-5.8-24.3-24.6-35.9c0,0,22.2,28.3,16.1,56.3
		c0,0-7.6-12.2-22.8-20.4c0,0,11.3,17,6.4,33.8c0,0-15.8-10.3-27.1-8.5c0,0,18.9,10.3,9.7,30.7c0,0-14-0.6-29.8,2.4
		c-0.3-0.3,26.5,12.2,23.1,29.2c0,0-0.6-6.7-18.6-8.8c0,0,16.4,10.9,9.7,24"/>
	<circle fill="#F8F8EC" cx="195.3" cy="469.3" r="3"/>
	<circle fill="#F8F8EC" cx="375.6" cy="469.3" r="3"/>
	<path fill="#FFFFFF" d="M283.5,638.4c0,0,17-14.9,34.4,0"/>
</g>
</svg>
