<?xml version="1.0" encoding="utf-8"?>
<!-- Generator: Adobe Illustrator 18.0.0, SVG Export Plug-In . SVG Version: 6.00 Build 0)  -->
<!DOCTYPE svg PUBLIC "-//W3C//DTD SVG 1.1//EN" "http://www.w3.org/Graphics/SVG/1.1/DTD/svg11.dtd">
<svg version="1.1" id="Layer_1" xmlns="http://www.w3.org/2000/svg" xmlns:xlink="http://www.w3.org/1999/xlink" x="0px" y="0px"
	 viewBox="0 0 32 32" enable-background="new 0 0 32 32" xml:space="preserve">
<path fill="#414141" d="M27,0c-2.8,0-5,2.2-5,5v15h4v12h6V5C32,2.2,29.8,0,27,0z M13,0c-0.6,0-1,0.4-1,1v7c0,0.3-0.4,0.5-1,0.5
	c-0.6,0-1-0.2-1-0.5V1c0-0.6-0.4-1-1-1C8.4,0,8,0.4,8,1v7c0,0.3-0.4,0.5-1,0.5C6.4,8.5,6,8.3,6,8V1c0-0.6-0.4-1-1-1C4.4,0,4,0.4,4,1
	v7c0,0.3-0.4,0.5-1,0.5C2.4,8.5,2,8.3,2,8V1c0-0.6-0.4-1-1-1C0.4,0,0,0.4,0,1v7v2c0,0.9,0.8,1.4,1.7,2C2.8,12.8,4,13.8,4,16v16h6V16
	c0-2.2,1.2-3.2,2.3-4c0.9-0.6,1.7-1.1,1.7-2V8V1C14,0.4,13.6,0,13,0z"/>
</svg>
