<?xml version="1.0" encoding="utf-8"?>
<!-- Generator: Adobe Illustrator 18.0.0, SVG Export Plug-In . SVG Version: 6.00 Build 0)  -->
<!DOCTYPE svg PUBLIC "-//W3C//DTD SVG 1.1//EN" "http://www.w3.org/Graphics/SVG/1.1/DTD/svg11.dtd">
<svg version="1.1" id="Layer_1" xmlns="http://www.w3.org/2000/svg" xmlns:xlink="http://www.w3.org/1999/xlink" x="0px" y="0px"
	 viewBox="0 2 24 21.7" enable-background="new 0 2 24 21.7" xml:space="preserve">
<path fill="none" stroke="#404040" stroke-width="2" stroke-linecap="round" stroke-linejoin="round" stroke-miterlimit="10" d="
	M18.2,5.8c-0.2-1.1-1.3-1.9-2.6-1.9c-0.4,0-0.7,0.1-1,0.2C14.1,3.4,13.3,3,12.4,3c-1.1,0-2,0.6-2.4,1.4C9.6,4.1,9,3.9,8.4,3.9
	C7.1,3.9,6,4.7,5.8,5.8C4.1,6.5,3,7.4,3,8.4c0,2,4,3.6,9,3.6s9-1.6,9-3.6C21,7.4,19.9,6.5,18.2,5.8z"/>
<path fill="none" stroke="#404040" stroke-width="1.8462" stroke-linecap="round" stroke-linejoin="round" stroke-miterlimit="10" d="
	M8,7c0,0,0.5,2,3,2"/>
<path fill="none" stroke="#404040" stroke-width="2" stroke-linecap="round" stroke-linejoin="round" stroke-miterlimit="10" d="
	M14,9c0,0,1,0,1-1"/>
<path fill="#404040" d="M22,8.2c0,0-3.1,3.9-10,3.9s-10-4-10-4l-2,7.6c0,3.2,5.2,5.5,12,5.5s12-2.4,12-5.5L22,8.2z M17,17.3
	c0,0.9-0.8,1.7-1.7,1.7c-0.9,0-1.7-0.8-1.7-1.7c0-0.1,0-0.2,0-0.3H9.9c0.1,0.2,0.1,0.3,0.1,0.5c0,0.8-0.7,1.5-1.5,1.5S7,18.3,7,17.5
	c0-0.6,0.3-1.1,0.8-1.3C7.3,15.9,7,15.3,7,14.7C7,13.8,7.8,13,8.7,13s1.7,0.8,1.7,1.7c0,0.1,0,0.2,0,0.3h3.7
	C14,14.8,14,14.7,14,14.5c0-0.8,0.7-1.5,1.5-1.5c0.8,0,1.5,0.7,1.5,1.5c0,0.6-0.3,1.1-0.8,1.3C16.7,16.1,17,16.7,17,17.3z"/>
</svg>
