<?xml version="1.0" encoding="utf-8"?>
<!-- Generator: Adobe Illustrator 18.0.0, SVG Export Plug-In . SVG Version: 6.00 Build 0)  -->
<!DOCTYPE svg PUBLIC "-//W3C//DTD SVG 1.1//EN" "http://www.w3.org/Graphics/SVG/1.1/DTD/svg11.dtd">
<svg version="1.1" id="Layer_1" xmlns="http://www.w3.org/2000/svg" xmlns:xlink="http://www.w3.org/1999/xlink" x="0px" y="0px"
	 viewBox="0 0 126.4 233.5" enable-background="new 0 0 126.4 233.5" xml:space="preserve">
<path fill="#EFEFE1" d="M114.2,151c0,83.4-22.8,57.3-51,57.3s-51,26.1-51-57.3S35,0,63.2,0S114.2,67.6,114.2,151z"/>
<path fill="#F8F8EC" d="M94.2,32.9c0,0,16.5,27.2,12.3,53.4c0,0-1.1,0.6-7.2-9.5c0,0,2.3,11-1.6,17.4c0,0,1.6-1.1-3.9-5.7
	c0,0,1.1,6.5-3,12.5c0,0-0.6-3-7.1-6.8c0,0-0.8,6.8-5.9,12.3c0,0-0.8-5.4-5.4-11c0,0,1.7,6.6,0,10.6c0,0,0.6-1.4-1.2-2.8
	c0,0-0.3,5.8-7.9,10.8h0.3c-7.6-5-7.9-10.8-7.9-10.8c-1.8,1.5-1.2,2.8-1.2,2.8c-1.7-4,0-10.6,0-10.6c-4.7,5.6-5.4,11-5.4,11
	C43.8,101,43,94.2,43,94.2c-6.5,3.8-7.1,6.8-7.1,6.8c-4.1-6-3-12.5-3-12.5C27.4,93,29,94.2,29,94.2c-3.9-6.3-2.7-17.4-2.7-17.4
	c-6.1,10.1-6.3,9.5-6.3,9.5c-4.3-26.2,10-52,10-52"/>
<path fill="#EFEFE1" d="M30.3,150.4c0,0-61-31.4-7.1,58.7c0,0-10.4,16.3,0.7,16.1s21-2.9,24.1-8.5C56.5,201.7,30.3,150.4,30.3,150.4
	z"/>
<path fill="#D8D8D6" d="M1.2,224.3c6.9,17.9,11.6-1.1,11.6-1.1s2.3,10.3,8.8,10.3c6.9,0,9.2-10.7,9.2-10.7s2.8,17.6,10.9,2.4
	c4.1-7.7-4.1-15.5-20-15.5S-2,216.1,1.2,224.3z"/>
<path fill="none" stroke="#EFEFE1" stroke-miterlimit="10" d="M99.5,44.8c0,0,2.3,7.3-1.6,11.5c0,0,1.6-0.7-3.9-3.8
	c0,0,1.1,4.3-3,8.3c0,0-0.6-2-7.1-4.5c0,0-0.8,4.5-5.9,8.1c0,0-0.8-3.6-5.4-7.3c0,0,1.7,4.4,0,7c0,0,0.6-0.9-1.2-1.9
	c0,0-0.3,3.9-7.9,7.2h0.3c-7.6-3.3-7.9-7.2-7.9-7.2c-1.8,1-1.2,1.9-1.2,1.9c-1.7-2.6,0-7,0-7c-4.7,3.7-5.4,7.3-5.4,7.3
	c-5.1-3.6-5.9-8.1-5.9-8.1c-6.5,2.5-7.1,4.5-7.1,4.5c-4.1-4-3-8.3-3-8.3c-5.5,3-3.9,3.8-3.9,3.8c-3.9-4.2-2.7-11.5-2.7-11.5"/>
<path fill="#F8F8EC" d="M98.8,77.5l2.2,1.1c5.9,3,8.3,10.2,5.3,16.1l-15,29.8l1.2,35.5c-3,5.9-10.2,8.3-16.1,5.3l-2.2-1.1
	c-5.9-3-8.3-10.2-5.3-16.1l-1.2-35.4l15.1-29.8C85.7,76.9,92.9,74.5,98.8,77.5z"/>
<path fill="#F8F8EC" d="M31.9,81l-2.1,1.2c-5.8,3.2-7.9,10.5-4.7,16.3l16.1,29.2l0.2,35.5c3.2,5.8,10.5,7.9,16.3,4.7l2.1-1.2
	c5.8-3.2,7.9-10.5,4.7-16.3l-0.1-35.4L48.2,85.7C45,79.9,37.7,77.8,31.9,81z"/>
<path fill="none" stroke="#EFEFE1" stroke-miterlimit="10" d="M106.5,86.3c0,0-1.1,0.6-7.2-9.5c0,0,2.3,11-1.6,17.4
	c0,0,1.6-1.1-3.9-5.7c0,0,1.1,6.5-3,12.5c0,0-0.6-3-7.1-6.8c0,0-0.8,6.8-5.9,12.3c0,0-0.8-5.4-5.4-11c0,0,1.7,6.6,0,10.6
	c0,0,0.6-1.4-1.2-2.8c0,0-0.3,5.8-7.9,10.8h0.3c-7.6-5-7.9-10.8-7.9-10.8c-1.8,1.5-1.2,2.8-1.2,2.8c-1.7-4,0-10.6,0-10.6
	c-4.7,5.6-5.4,11-5.4,11C43.8,101,43,94.2,43,94.2c-6.5,3.8-7.1,6.8-7.1,6.8c-4.1-6-3-12.5-3-12.5C27.3,93,29,94.2,29,94.2
	c-3.9-6.3-2.7-17.4-2.7-17.4c-6.1,10.1-6.3,9.5-6.3,9.5"/>
<path fill="#EFEFE1" d="M96.6,150.4c0,0,61-31.4,7.1,58.7c0,0,10.4,16.3-0.7,16.1s-21-2.9-24.1-8.5
	C70.4,201.7,96.6,150.4,96.6,150.4z"/>
<path fill="#D8D8D6" d="M125.7,224.3c-6.9,17.9-11.6-1.1-11.6-1.1s-2.3,10.3-8.8,10.3c-6.9,0-9.2-10.7-9.2-10.7s-2.8,17.6-10.9,2.4
	c-4.1-7.7,4.1-15.5,20-15.5S128.9,216.1,125.7,224.3z"/>
<path fill="#D8D8D6" d="M65.1,160.3c0.6,3.5-5.5,10-12.2,10s-12.9-6.5-12.2-10c0.5-2.8,5.5,1,12.2,1S64.6,157.5,65.1,160.3z"/>
<path fill="#D8D8D6" d="M94.1,157.9c0.6,3.5-5.5,10-12.2,10s-12.9-6.5-12.2-10c0.5-2.8,5.5,1,12.2,1S93.6,155.2,94.1,157.9z"/>
</svg>
