<?xml version="1.0" encoding="utf-8"?>
<!-- Generator: Adobe Illustrator 18.0.0, SVG Export Plug-In . SVG Version: 6.00 Build 0)  -->
<!DOCTYPE svg PUBLIC "-//W3C//DTD SVG 1.1//EN" "http://www.w3.org/Graphics/SVG/1.1/DTD/svg11.dtd">
<svg version="1.1" id="Layer_1" xmlns="http://www.w3.org/2000/svg" xmlns:xlink="http://www.w3.org/1999/xlink" x="0px" y="0px"
	 viewBox="0 0 188.4 90.5" enable-background="new 0 0 188.4 90.5" xml:space="preserve">
<g>
	<g>
		<path fill="#BA9689" d="M77.3,4.3c0,0-27.9,4.1-56.1,23C15,31.4-9.5,37.7,4,43.3c6.9,2.8,13.4,3.8,29.2,5.4
			c15.8,1.6,33.9,1.1,43.3-7.4c0,0,10-4.4,18.7-7.8"/>
		<path fill="#F8F8EC" d="M77.3,4.3c0,0-32,6.1-56.1,23c0,0-21.8,9.2-20.7,11c0.2,0.4,63.1-10,79.3-21.6"/>
	</g>
	<g>
		<path fill="#BA9689" d="M111.5,5.8c0,0,27.9,4.1,56.1,23c6.1,4.1,30.7,10.4,17.2,15.9c-6.9,2.8-13.4,3.8-29.2,5.4
			c-15.8,1.6-33.9,1.1-43.3-7.4c0,0-10-4.4-18.7-7.8"/>
		<path fill="#F8F8EC" d="M111.5,5.8c0,0,32,6.1,56.1,23c0,0,21.8,9.2,20.7,11c-0.2,0.4-63.1-10-79.3-21.6"/>
	</g>
	<path fill="#F8F8EC" d="M135.2,67.1c2.2-15.7-19.2-44.9-42.8-44.9s-45,29.2-42.8,44.9c1.7,12.5,19.2,23.4,42.8,23.4
		S133.5,79.6,135.2,67.1z"/>
	<ellipse fill="#F8F8EC" cx="93.5" cy="31.2" rx="32.3" ry="31.2"/>
	<path fill="#EFEFE1" d="M120.6,63.7c1.4-10.8-12.1-30.8-27.1-30.8S65,52.9,66.4,63.7c1.1,8.6,12.1,16,27.1,16
		S119.5,72.3,120.6,63.7z"/>
	<path fill="#BA9689" d="M83.8,64c-0.5-4.5,4.3-12.9,9.7-12.9c5.4,0,10.2,8.4,9.7,12.9c-0.4,3.6-4.3,6.7-9.7,6.7S84.2,67.6,83.8,64z
		"/>
	<path fill="#BFBFBE" d="M108,61.8c0.7,4.6-6.5,13-14.5,13s-15.3-8.5-14.5-13c0.6-3.6,6.5,1.3,14.5,1.3S107.5,58.1,108,61.8z"/>
	<rect x="85.1" y="52.5" fill="#F8F8EC" width="16.8" height="8.5"/>
	<rect x="78" y="47.5" fill="#3F403F" width="31" height="12.3"/>
	<path fill="#D8D8D6" d="M80.2,39.9c3.8-0.4,12.6,8.1,12.6,8.1l0,11.6c0,0-9.8,8.5-13.7,7.8c-4.1-0.7-7.5-6.5-7.2-14
		S76,40.3,80.2,39.9z"/>
	<path fill="#D8D8D6" d="M105.5,39.9c-3.8-0.3-12.5,8.2-12.5,8.2l0.1,11.6c0,0,9.9,8.4,13.7,7.6c4.1-0.8,7.5-6.5,7.1-14.1
		C113.6,45.7,109.7,40.3,105.5,39.9z"/>
	<path fill="#BA9689" d="M102.6,38.9c0.5,3.2-9.7,9.3-9.7,9.3s-10.2-6-9.7-9.3c0.4-2.6,4.3-4.8,9.7-4.8S102.2,36.3,102.6,38.9z"/>
	<path fill="#010101" d="M70,25.5c-2.2,2.7-1,7,2.5,7.8c0.3,0.1,0.7,0.1,1.1,0.1c2.9,0,0.9-2.5,0.9-5.6s1.7-7-0.9-5.5
		C72.1,23.1,70.9,24.4,70,25.5z"/>
	<ellipse fill="#F8F8EC" cx="72.3" cy="26.2" rx="0.7" ry="0.8"/>
	<path fill="#010101" d="M119.1,25.5c2.2,2.7,1,7-2.5,7.8c-0.3,0.1-0.7,0.1-1.1,0.1c-2.9,0-0.9-2.5-0.9-5.6s-1.7-7,0.9-5.5
		C116.9,23.1,118.1,24.4,119.1,25.5z"/>
	<ellipse fill="#F8F8EC" cx="116.7" cy="26.2" rx="0.7" ry="0.8"/>
	<g>
		<path fill="#FFFFFF" d="M107.6,47.1c0,0,4.1-0.2,10.2-0.4c3.1-0.1,6.6-0.1,10.5-0.1c3.8,0,7.9,0.1,12,0.2c2,0.1,4.1,0.2,6.1,0.3
			c2,0.1,4,0.3,5.9,0.4c1.9,0.2,3.7,0.3,5.5,0.5c1.7,0.2,3.4,0.4,4.9,0.6c1.5,0.2,2.9,0.5,4.1,0.6c1.2,0.2,2.3,0.4,3.2,0.6
			c1.7,0.4,2.7,0.6,2.7,0.6s-1-0.2-2.8-0.5c-0.9-0.2-1.9-0.4-3.2-0.6c-1.2-0.2-2.6-0.4-4.1-0.6c-1.5-0.2-3.2-0.4-4.9-0.5
			c-1.7-0.1-3.6-0.3-5.5-0.4c-1.9-0.1-3.9-0.2-5.9-0.3c-2-0.1-4-0.2-6.1-0.2c-4.1-0.1-8.1-0.1-12-0.1c-3.8,0-7.4,0.1-10.4,0.2
			c-6.1,0.2-10.2,0.5-10.2,0.5L107.6,47.1z"/>
	</g>
	<g>
		<path fill="#FFFFFF" d="M106.7,51.9c0,0,4.5,0.6,11.1,1.8c3.3,0.6,7.2,1.3,11.4,2.1c2.1,0.4,4.2,0.8,6.4,1.3
			c2.2,0.4,4.4,1,6.6,1.5c2.2,0.5,4.4,1.1,6.6,1.6c2.2,0.6,4.3,1.1,6.3,1.6c2,0.6,4,1.1,5.9,1.7c1.9,0.6,3.6,1.1,5.2,1.6
			c1.6,0.6,3.1,1.1,4.4,1.5c1.3,0.4,2.4,0.9,3.3,1.3c1.8,0.7,2.9,1.1,2.9,1.1s-1.1-0.4-2.9-1.1c-0.9-0.3-2-0.8-3.3-1.2
			c-1.3-0.4-2.8-0.9-4.4-1.5c-1.6-0.5-3.4-1-5.2-1.6c-1.9-0.5-3.8-1.1-5.9-1.6c-2.1-0.5-4.2-1-6.3-1.6c-2.2-0.5-4.4-1-6.6-1.5
			c-2.2-0.5-4.4-1-6.6-1.4c-2.2-0.4-4.3-0.9-6.4-1.2c-4.2-0.8-8-1.4-11.4-2c-6.7-1.1-11.1-1.7-11.1-1.7L106.7,51.9z"/>
	</g>
	<g>
		<path fill="#FFFFFF" d="M106.5,58.7c0,0,4.3,1.3,10.7,3.5c3.2,1.1,6.9,2.4,10.9,3.8c2,0.7,4,1.5,6.1,2.3c2.1,0.8,4.2,1.6,6.3,2.4
			c2.1,0.8,4.2,1.7,6.2,2.5c2,0.9,4,1.8,6,2.6c1.9,0.9,3.8,1.7,5.5,2.6c1.7,0.9,3.4,1.7,4.9,2.4c1.5,0.8,2.9,1.5,4.1,2.2
			c1.2,0.6,2.2,1.3,3.1,1.8c1.7,1,2.7,1.6,2.7,1.6s-1-0.6-2.7-1.5c-0.9-0.5-1.9-1.1-3.1-1.7c-1.2-0.6-2.6-1.3-4.1-2.1
			c-1.5-0.7-3.2-1.5-4.9-2.4c-1.8-0.8-3.6-1.6-5.6-2.5c-1.9-0.8-4-1.7-6-2.5c-2.1-0.8-4.1-1.7-6.3-2.5c-2.1-0.8-4.2-1.6-6.3-2.4
			c-2.1-0.8-4.1-1.5-6.1-2.2c-4-1.4-7.7-2.7-10.9-3.7c-6.4-2.1-10.8-3.4-10.8-3.4L106.5,58.7z"/>
	</g>
	<g>
		<path fill="#FFFFFF" d="M76.7,48.9c0,0-4.1-0.3-10.2-0.5c-3.1-0.1-6.6-0.2-10.4-0.2c-3.8-0.1-7.9,0-12,0.1c-2,0-4.1,0.1-6.1,0.2
			c-2,0.1-4,0.2-5.9,0.3c-1.9,0.2-3.7,0.3-5.5,0.4c-1.7,0.2-3.4,0.4-4.9,0.5c-1.5,0.2-2.9,0.4-4.1,0.6c-1.2,0.2-2.3,0.4-3.2,0.6
			c-1.8,0.3-2.8,0.5-2.8,0.5s1-0.2,2.7-0.6c0.9-0.2,1.9-0.4,3.2-0.6c1.2-0.2,2.6-0.4,4.1-0.6c1.5-0.2,3.2-0.4,4.9-0.6
			c1.7-0.2,3.6-0.3,5.5-0.5c1.9-0.1,3.9-0.3,5.9-0.4c2-0.1,4-0.2,6.1-0.3c4.1-0.1,8.2-0.2,12-0.2c3.8,0,7.4,0,10.5,0.1
			c6.1,0.1,10.2,0.4,10.2,0.4L76.7,48.9z"/>
	</g>
	<g>
		<path fill="#FFFFFF" d="M77.7,53.6c0,0-4.5,0.6-11.1,1.7c-3.3,0.6-7.2,1.2-11.4,2c-2.1,0.4-4.2,0.8-6.4,1.2
			c-2.2,0.4-4.4,0.9-6.6,1.4c-2.2,0.5-4.4,1-6.6,1.5c-2.2,0.5-4.3,1.1-6.3,1.6c-2,0.6-4,1.1-5.9,1.6c-1.9,0.6-3.6,1.1-5.2,1.6
			c-1.6,0.5-3.1,1-4.4,1.5c-1.3,0.4-2.4,0.9-3.3,1.2C8.7,69.6,7.6,70,7.6,70s1-0.4,2.9-1.1c0.9-0.4,2-0.8,3.3-1.3
			c1.3-0.5,2.8-1,4.4-1.5c1.6-0.5,3.4-1.1,5.2-1.6c1.9-0.5,3.8-1.1,5.9-1.7c2-0.5,4.2-1.1,6.3-1.6c2.2-0.5,4.4-1.1,6.6-1.6
			c2.2-0.5,4.4-1,6.6-1.5c2.2-0.5,4.3-0.9,6.4-1.3c4.2-0.8,8-1.5,11.4-2.1c6.7-1.2,11.1-1.8,11.1-1.8L77.7,53.6z"/>
	</g>
	<g>
		<path fill="#FFFFFF" d="M78.1,60.4c0,0-4.3,1.3-10.8,3.4c-3.2,1.1-7,2.3-10.9,3.7c-2,0.7-4.1,1.4-6.1,2.2
			c-2.1,0.8-4.2,1.6-6.3,2.4c-2.1,0.8-4.2,1.7-6.3,2.5c-2,0.9-4.1,1.7-6,2.5c-1.9,0.9-3.8,1.7-5.6,2.5c-1.7,0.8-3.4,1.6-4.9,2.4
			c-1.5,0.8-2.9,1.5-4.1,2.1c-1.2,0.6-2.3,1.2-3.1,1.7c-1.7,1-2.7,1.5-2.7,1.5s1-0.6,2.7-1.6c0.9-0.5,1.9-1.1,3.1-1.8
			c1.2-0.6,2.6-1.4,4.1-2.2c1.5-0.7,3.2-1.6,4.9-2.4c1.8-0.8,3.6-1.7,5.5-2.6c1.9-0.8,4-1.7,6-2.6c2.1-0.8,4.1-1.7,6.2-2.5
			c2.1-0.8,4.2-1.7,6.3-2.4c2.1-0.8,4.1-1.6,6.1-2.3c4-1.5,7.7-2.7,10.9-3.8c6.4-2.2,10.7-3.5,10.7-3.5L78.1,60.4z"/>
	</g>
</g>
</svg>
