<?xml version="1.0" encoding="utf-8"?>
<!-- Generator: Adobe Illustrator 18.0.0, SVG Export Plug-In . SVG Version: 6.00 Build 0)  -->
<!DOCTYPE svg PUBLIC "-//W3C//DTD SVG 1.1//EN" "http://www.w3.org/Graphics/SVG/1.1/DTD/svg11.dtd">
<svg version="1.1" id="Layer_1" xmlns="http://www.w3.org/2000/svg" xmlns:xlink="http://www.w3.org/1999/xlink" x="0px" y="0px"
	 viewBox="0 0 172 333.3" enable-background="new 0 0 172 333.3" xml:space="preserve">
<path fill="#EFEFE1" d="M137.2,250.7c0,83.4-22.8,57.3-51,57.3s-51,26.1-51-57.3s22.8-151,51-151S137.2,167.3,137.2,250.7z"/>
<path fill="#F8F8EC" d="M117.2,132.7c0,0,16.5,27.2,12.3,53.4c0,0-1.1,0.6-7.2-9.5c0,0,2.3,11-1.6,17.4c0,0,1.6-1.1-3.9-5.7
	c0,0,1.1,6.5-3,12.5c0,0-0.6-3-7.1-6.8c0,0-0.8,6.8-5.9,12.3c0,0-0.8-5.4-5.4-11c0,0,1.7,6.6,0,10.6c0,0,0.6-1.4-1.2-2.8
	c0,0-0.3,5.8-7.9,10.8h0.3c-7.6-5-7.9-10.8-7.9-10.8c-1.8,1.5-1.2,2.8-1.2,2.8c-1.7-4,0-10.6,0-10.6c-4.7,5.6-5.4,11-5.4,11
	c-5.1-5.5-5.9-12.3-5.9-12.3c-6.5,3.8-7.1,6.8-7.1,6.8c-4.1-6-3-12.5-3-12.5c-5.5,4.6-3.9,5.7-3.9,5.7c-3.9-6.3-2.7-17.4-2.7-17.4
	C43.2,186.6,43,186,43,186c-4.3-26.2,10-52,10-52"/>
<path fill="#EFEFE1" d="M53.3,250.1c0,0-61-31.4-7.1,58.7c0,0-10.4,16.3,0.7,16.1s21-2.9,24.1-8.5C79.4,301.4,53.3,250.1,53.3,250.1
	z"/>
<path fill="#D8D8D6" d="M24.1,324c6.9,17.9,11.6-1.1,11.6-1.1s2.3,10.3,8.8,10.3c6.9,0,9.2-10.7,9.2-10.7s2.8,17.6,10.9,2.4
	c4.1-7.7-4.1-15.5-20-15.5S20.9,315.8,24.1,324z"/>
<path fill="none" stroke="#EFEFE1" stroke-miterlimit="10" d="M122.4,144.5c0,0,2.3,7.3-1.6,11.5c0,0,1.6-0.7-3.9-3.8
	c0,0,1.1,4.3-3,8.3c0,0-0.6-2-7.1-4.5c0,0-0.8,4.5-5.9,8.1c0,0-0.8-3.6-5.4-7.3c0,0,1.7,4.4,0,7c0,0,0.6-0.9-1.2-1.9
	c0,0-0.3,3.9-7.9,7.2h0.3c-7.6-3.3-7.9-7.2-7.9-7.2c-1.8,1-1.2,1.9-1.2,1.9c-1.7-2.6,0-7,0-7c-4.7,3.7-5.4,7.3-5.4,7.3
	c-5.1-3.6-5.9-8.1-5.9-8.1c-6.5,2.5-7.1,4.5-7.1,4.5c-4.1-4-3-8.3-3-8.3c-5.5,3-3.9,3.8-3.9,3.8c-3.9-4.2-2.7-11.5-2.7-11.5"/>
<path fill="#F8F8EC" d="M121.8,177.2l2.2,1.1c5.9,3,8.3,10.2,5.3,16.1l-15,29.8l1.2,35.5c-3,5.9-10.2,8.3-16.1,5.3l-2.2-1.1
	c-5.9-3-8.3-10.2-5.3-16.1l-1.2-35.4l15.1-29.8C108.6,176.6,115.9,174.2,121.8,177.2z"/>
<path fill="#F8F8EC" d="M54.8,180.7l-2.1,1.2c-5.8,3.2-7.9,10.5-4.7,16.3l16.1,29.2l0.2,35.5c3.2,5.8,10.5,7.9,16.3,4.7l2.1-1.2
	c5.8-3.2,7.9-10.5,4.7-16.3l-0.1-35.4l-16.2-29.2C67.9,179.6,60.6,177.5,54.8,180.7z"/>
<path fill="none" stroke="#EFEFE1" stroke-miterlimit="10" d="M129.4,186c0,0-1.1,0.6-7.2-9.5c0,0,2.3,11-1.6,17.4
	c0,0,1.6-1.1-3.9-5.7c0,0,1.1,6.5-3,12.5c0,0-0.6-3-7.1-6.8c0,0-0.8,6.8-5.9,12.3c0,0-0.8-5.4-5.4-11c0,0,1.7,6.6,0,10.6
	c0,0,0.6-1.4-1.2-2.8c0,0-0.3,5.8-7.9,10.8h0.3c-7.6-5-7.9-10.8-7.9-10.8c-1.8,1.5-1.2,2.8-1.2,2.8c-1.7-4,0-10.6,0-10.6
	c-4.7,5.6-5.4,11-5.4,11c-5.1-5.5-5.9-12.3-5.9-12.3c-6.5,3.8-7.1,6.8-7.1,6.8c-4.1-6-3-12.5-3-12.5c-5.5,4.6-3.9,5.7-3.9,5.7
	c-3.9-6.3-2.7-17.4-2.7-17.4c-6.1,10.1-6.3,9.5-6.3,9.5"/>
<path fill="#EFEFE1" d="M119.5,250.1c0,0,61-31.4,7.1,58.7c0,0,10.4,16.3-0.7,16.1s-21-2.9-24.1-8.5
	C93.4,301.4,119.5,250.1,119.5,250.1z"/>
<path fill="#D8D8D6" d="M148.7,324c-6.9,17.9-11.6-1.1-11.6-1.1s-2.3,10.3-8.8,10.3c-6.9,0-9.2-10.7-9.2-10.7s-2.8,17.6-10.9,2.4
	c-4.1-7.7,4.1-15.5,20-15.5S151.8,315.8,148.7,324z"/>
<path fill="#D8D8D6" d="M88,260.1c0.6,3.5-5.5,10-12.2,10s-12.9-6.5-12.2-10c0.5-2.8,5.5,1,12.2,1S87.5,257.3,88,260.1z"/>
<path fill="#D8D8D6" d="M117.1,257.7c0.6,3.5-5.5,10-12.2,10s-12.9-6.5-12.2-10c0.5-2.8,5.5,1,12.2,1S116.6,254.9,117.1,257.7z"/>
<g>
	<g>
		<path fill="#BA9689" d="M93.1,67.4c0,0,10.8-26,36.1-48.8c5.5-5,17.5-27.3,19.7-12.8c1.1,7.4,0.4,14-1.9,29.7
			c-2.3,15.7-7.2,33.2-17.8,40.2c0,0-6.7,8.6-12.1,16.2"/>
		<path fill="#F8F8EC" d="M93.1,67.4c0,0,13.7-29.5,36.1-48.8c0,0,14.3-18.9,15.7-17.4c0.3,0.3-25.1,58.7-40.3,71.6"/>
	</g>
	<g>
		<path fill="#BA9689" d="M79.2,67.4c0,0-10.8-26-36.1-48.8c-5.5-5-17.5-27.3-19.7-12.8c-1.1,7.4-0.4,14,1.9,29.7
			s7.2,33.2,17.8,40.2c0,0,6.7,8.6,12.1,16.2"/>
		<path fill="#F8F8EC" d="M79.2,67.4c0,0-13.7-29.5-36.1-48.8c0,0-14.3-18.9-15.7-17.4c-0.3,0.3,25.1,58.7,40.3,71.6"/>
	</g>
	<path fill="#F8F8EC" d="M129,133.5c2.2-15.7-19.2-44.9-42.8-44.9s-45,29.2-42.8,44.9c1.7,12.5,19.2,23.4,42.8,23.4
		S127.2,146,129,133.5z"/>
	<ellipse fill="#F8F8EC" cx="87.2" cy="97.6" rx="32.3" ry="31.2"/>
	<g>
		<path fill="#010101" d="M67.4,93.2c0,3.1,1.3,6.5-1.8,6.5S60,97.2,60,94.1c0-3.1,2.5-5.6,5.6-5.6S67.4,90.1,67.4,93.2z"/>
		<circle fill="#F8F8EC" cx="63.5" cy="92.5" r="0.7"/>
	</g>
	<path fill="#EFEFE1" d="M114.3,130.1c1.4-10.8-12.1-30.8-27.1-30.8s-28.5,20-27.1,30.8c1.1,8.6,12.1,16,27.1,16
		S113.2,138.7,114.3,130.1z"/>
	<g>
		<path fill="#010101" d="M105.9,93.2c0,3.1-1.3,6.5,1.8,6.5c3.1,0,5.6-2.5,5.6-5.6s-2.5-5.6-5.6-5.6
			C104.5,88.6,105.9,90.1,105.9,93.2z"/>
		<circle fill="#F8F8EC" cx="109.8" cy="92.5" r="0.7"/>
	</g>
	<path fill="#BA9689" d="M77.5,130.4c-0.5-4.5,4.3-12.9,9.7-12.9c5.4,0,10.2,8.4,9.7,12.9c-0.4,3.6-4.3,6.7-9.7,6.7
		S77.9,134,77.5,130.4z"/>
	<path fill="#BFBFBE" d="M101.8,128.2c0.7,4.6-6.5,13-14.5,13s-15.3-8.5-14.5-13c0.6-3.6,6.5,1.3,14.5,1.3S101.2,124.5,101.8,128.2z
		"/>
	<rect x="78.8" y="118.9" fill="#F8F8EC" width="16.8" height="8.5"/>
	<rect x="71.7" y="113.9" fill="#3F403F" width="31" height="12.3"/>
	<path fill="#D8D8D6" d="M73.9,106.2c3.8-0.4,12.6,8.1,12.6,8.1l0,11.6c0,0-9.8,8.5-13.7,7.8c-4.1-0.7-7.5-6.5-7.2-14
		C65.9,112.1,69.8,106.7,73.9,106.2z"/>
	<path fill="#D8D8D6" d="M99.2,106.3c-3.8-0.3-12.5,8.2-12.5,8.2l0.1,11.6c0,0,9.9,8.4,13.7,7.6c4.1-0.8,7.5-6.5,7.1-14.1
		C107.3,112.1,103.4,106.7,99.2,106.3z"/>
	<path fill="#BA9689" d="M96.3,105.3c0.5,3.2-9.7,9.3-9.7,9.3s-10.2-6-9.7-9.3c0.4-2.6,4.3-4.8,9.7-4.8S95.9,102.7,96.3,105.3z"/>
	<g>
		<path fill="#FFFFFF" d="M71.6,111.7c0,0-4-0.9-9.9-2.2c-3-0.6-6.5-1.3-10.3-1.9c-3.8-0.7-7.8-1.3-11.8-1.9c-2-0.3-4-0.5-6-0.8
			c-2-0.2-4-0.4-5.9-0.6c-1.9-0.2-3.7-0.3-5.5-0.5c-1.7-0.1-3.4-0.2-4.9-0.3c-1.5,0-2.9-0.1-4.2-0.1c-1.2,0-2.3,0-3.2,0
			c-1.8,0-2.8,0.1-2.8,0.1s1,0,2.8-0.1c0.9,0,2-0.1,3.2-0.1c1.2,0,2.6,0,4.2,0c1.5,0.1,3.2,0.1,4.9,0.2c1.7,0.1,3.6,0.3,5.5,0.4
			c1.9,0.2,3.9,0.4,5.9,0.6c2,0.2,4,0.5,6,0.7c4,0.5,8.1,1.1,11.8,1.8c3.8,0.6,7.3,1.3,10.3,1.8c6,1.1,10,2,10,2L71.6,111.7z"/>
	</g>
	<g>
		<path fill="#FFFFFF" d="M71.9,116.6c0,0-4.5-0.1-11.3-0.2c-3.4,0-7.3,0-11.6,0.1c-2.1,0-4.3,0.1-6.5,0.2c-2.2,0.1-4.5,0.2-6.7,0.3
			c-2.3,0.1-4.5,0.3-6.7,0.4c-2.2,0.2-4.4,0.3-6.5,0.5c-2.1,0.2-4.1,0.4-6.1,0.6c-1.9,0.2-3.7,0.5-5.4,0.7c-1.7,0.3-3.2,0.5-4.6,0.7
			c-1.4,0.2-2.5,0.5-3.5,0.7c-1.9,0.4-3,0.6-3,0.6s1.1-0.2,3-0.7c1-0.2,2.1-0.5,3.5-0.7c1.4-0.2,2.9-0.5,4.6-0.8
			c1.7-0.2,3.5-0.5,5.4-0.8c1.9-0.2,4-0.5,6.1-0.7c2.1-0.2,4.3-0.4,6.5-0.6c2.2-0.2,4.5-0.3,6.7-0.5c2.3-0.1,4.5-0.3,6.7-0.4
			c2.2-0.1,4.4-0.2,6.5-0.2c4.2-0.1,8.2-0.2,11.6-0.2c6.8,0,11.3,0.1,11.3,0.1L71.9,116.6z"/>
	</g>
	<g>
		<path fill="#FFFFFF" d="M71.1,123.3c0,0-4.5,0.5-11.2,1.6c-3.3,0.5-7.2,1.1-11.4,1.9c-2.1,0.4-4.2,0.8-6.4,1.2
			c-2.2,0.4-4.4,0.9-6.6,1.3c-2.2,0.4-4.4,1-6.6,1.4c-2.2,0.5-4.3,1-6.3,1.5c-2,0.5-4,1.1-5.9,1.5c-1.9,0.5-3.6,1.1-5.2,1.5
			c-1.6,0.5-3.1,1-4.4,1.4c-1.3,0.4-2.4,0.9-3.4,1.2c-1.9,0.7-2.9,1.1-2.9,1.1s1.1-0.4,2.9-1.1c0.9-0.3,2-0.8,3.3-1.2
			c1.3-0.4,2.8-0.9,4.4-1.5c1.6-0.5,3.4-1,5.2-1.6c1.9-0.5,3.8-1.1,5.9-1.6c2.1-0.5,4.2-1,6.3-1.6c2.2-0.5,4.4-1,6.6-1.5
			c2.2-0.5,4.4-1,6.6-1.4c2.2-0.4,4.3-0.9,6.4-1.2c4.2-0.8,8.1-1.4,11.4-2c6.7-1.1,11.2-1.7,11.2-1.7L71.1,123.3z"/>
	</g>
	<g>
		<path fill="#FFFFFF" d="M100.2,111.1c0,0,4-0.9,10-2c3-0.6,6.5-1.2,10.3-1.8c3.8-0.6,7.8-1.2,11.8-1.8c2-0.3,4-0.5,6-0.7
			c2-0.2,4-0.4,5.9-0.6c1.9-0.1,3.7-0.3,5.5-0.4c1.8-0.1,3.4-0.1,4.9-0.2c1.5,0,2.9,0,4.2,0c1.2,0,2.3,0,3.2,0.1
			c1.8,0.1,2.8,0.1,2.8,0.1s-1,0-2.8-0.1c-0.9,0-2-0.1-3.2,0c-1.2,0-2.6,0.1-4.2,0.1c-1.5,0.1-3.2,0.2-4.9,0.3
			c-1.7,0.1-3.6,0.3-5.5,0.5c-1.9,0.2-3.9,0.4-5.9,0.6c-2,0.3-4,0.5-6,0.8c-4,0.6-8.1,1.2-11.8,1.9c-3.8,0.7-7.3,1.3-10.3,1.9
			c-6,1.2-9.9,2.2-9.9,2.2L100.2,111.1z"/>
	</g>
	<g>
		<path fill="#FFFFFF" d="M100.1,115.9c0,0,4.5-0.1,11.3-0.1c3.4,0,7.3,0.1,11.6,0.2c2.1,0.1,4.3,0.1,6.5,0.2
			c2.2,0.1,4.5,0.2,6.7,0.4c2.3,0.1,4.5,0.3,6.7,0.5c2.2,0.2,4.4,0.4,6.5,0.6c2.1,0.2,4.1,0.5,6.1,0.7c1.9,0.3,3.7,0.5,5.4,0.8
			c1.7,0.3,3.2,0.5,4.6,0.8c1.4,0.2,2.5,0.5,3.5,0.7c1.9,0.4,3,0.7,3,0.7s-1.1-0.2-3-0.6c-1-0.2-2.1-0.5-3.5-0.7
			c-1.4-0.2-2.9-0.5-4.6-0.7c-1.7-0.2-3.5-0.5-5.4-0.7c-1.9-0.2-4-0.4-6.1-0.6c-2.1-0.2-4.3-0.3-6.5-0.5c-2.2-0.1-4.5-0.3-6.7-0.4
			c-2.3-0.1-4.5-0.2-6.7-0.3c-2.2-0.1-4.4-0.1-6.5-0.2c-4.2-0.1-8.2-0.1-11.6-0.1c-6.8,0-11.3,0.2-11.3,0.2L100.1,115.9z"/>
	</g>
	<g>
		<path fill="#FFFFFF" d="M101,122.7c0,0,4.5,0.6,11.2,1.7c3.3,0.6,7.2,1.2,11.4,2c2.1,0.4,4.2,0.8,6.4,1.2c2.2,0.4,4.4,0.9,6.6,1.4
			c2.2,0.5,4.4,1,6.6,1.5c2.2,0.5,4.3,1.1,6.3,1.6c2,0.6,4,1.1,5.9,1.6c1.9,0.6,3.6,1.1,5.2,1.6c1.6,0.5,3.1,1,4.4,1.5
			c1.3,0.4,2.4,0.9,3.3,1.2c1.8,0.7,2.9,1.1,2.9,1.1s-1.1-0.4-2.9-1.1c-0.9-0.3-2-0.8-3.4-1.2c-1.3-0.4-2.8-0.9-4.4-1.4
			c-1.6-0.5-3.4-1-5.2-1.5c-1.9-0.5-3.9-1-5.9-1.5c-2.1-0.5-4.2-1-6.3-1.5c-2.2-0.5-4.4-1-6.6-1.4c-2.2-0.4-4.4-0.9-6.6-1.3
			c-2.2-0.4-4.3-0.8-6.4-1.2c-4.2-0.7-8.1-1.4-11.4-1.9c-6.7-1-11.2-1.6-11.2-1.6L101,122.7z"/>
	</g>
</g>
</svg>
