<?xml version="1.0" encoding="utf-8"?>
<!-- Generator: Adobe Illustrator 18.0.0, SVG Export Plug-In . SVG Version: 6.00 Build 0)  -->
<!DOCTYPE svg PUBLIC "-//W3C//DTD SVG 1.1//EN" "http://www.w3.org/Graphics/SVG/1.1/DTD/svg11.dtd">
<svg version="1.1" id="Layer_1" xmlns="http://www.w3.org/2000/svg" xmlns:xlink="http://www.w3.org/1999/xlink" x="0px" y="0px"
	 viewBox="0 0 173.7 294.3" enable-background="new 0 0 173.7 294.3" xml:space="preserve">
<g>
	<ellipse transform="matrix(0.9227 -0.3856 0.3856 0.9227 3.5019 38.4328)" fill="#303030" cx="97.6" cy="10.5" rx="0.6" ry="1.8"/>
	
		<ellipse transform="matrix(-0.9227 -0.3856 0.3856 -0.9227 157.1117 52.4752)" fill="#303030" cx="83.8" cy="10.5" rx="0.6" ry="1.8"/>
	<ellipse fill="#A5A49F" cx="75.2" cy="16.9" rx="3.1" ry="5.3"/>
	<ellipse fill="#FCDA7F" cx="74.2" cy="16.9" rx="2.1" ry="4.5"/>
	<ellipse fill="#303030" cx="74.3" cy="17.1" rx="1.9" ry="4.1"/>
	<ellipse fill="#A5A49F" cx="108.1" cy="17.1" rx="3.1" ry="5.3"/>
	<ellipse fill="#FCDA7F" cx="109.2" cy="17.1" rx="2.1" ry="4.5"/>
	<ellipse fill="#303030" cx="109" cy="17.3" rx="1.9" ry="4.1"/>
	<g>
		<path fill="#F26B35" d="M84.6,294.3L84.6,294.3c-0.2-47.3-0.9,0-1.3-0.1c-3.7-0.5-6.5-3.3-6.8-6.8l-6.6-82.6
			c-0.4-4.4,3.5-8.1,8.4-7.9l24.9,1c4.6,0.2,8.1,3.8,7.8,8.1l-6.2,71.3c-0.4,4.4-2.5,8.4-5.6,11.4C95.4,292.1,90.2,294.3,84.6,294.3
			z"/>
		<path opacity="0.11" d="M84.6,258.1L84.6,258.1c-4.7-0.1-8.8-2.1-9.2-4.7l-8.9-54.8c-0.5-2.9,3.8-5.3,9.2-5.1l27.8,1.1
			c5.1,0.2,9.1,2.7,8.8,5.5l-5.6,47.1C105.9,253.6,96.3,258.3,84.6,258.1z"/>
		<rect y="255.1" fill="#5CB475" width="173.7" height="22.7"/>
		<path fill="#CAC7D0" d="M139.6,168c0,0-6.2,59.5-11.6,73.1c-5.4,13.5-18,3.9-18,3.9l-5-42.4L139.6,168z"/>
		<path fill="#CAC7D0" d="M42.5,168c0,0,6.2,59.5,11.6,73.1c5.4,13.5,18,3.9,18,3.9l6.4-42.4L42.5,168z"/>
		<path fill="#A5A49F" d="M133.3,165.6c0,18.1-15.4,46.3-42.2,46.3s-42-24.9-42-46.3c0-41.6,12-84.2,18-115.2
			C75.9,4.7,75.1,0,91.1,0c16.1,0,15.3,0.9,24.2,47.1C121.2,78,133.3,124.3,133.3,165.6z"/>
		<path fill="#4E444B" d="M122.9,74.1c0,0,54.5-20.8,12.6,133.2C135.6,207.3,131.1,99.6,122.9,74.1z"/>
		<path fill="#4E444B" d="M59.4,74.1c0,0-54.5-20.8-12.6,133.2C46.7,207.3,51.3,99.6,59.4,74.1z"/>
		<g>
			<ellipse fill="#232323" cx="91.2" cy="32.6" rx="7.3" ry="18"/>
			<ellipse fill="#3F403F" cx="91.2" cy="26.7" rx="7.3" ry="18"/>
		</g>
		<path fill="#E2E0E2" d="M76.8,7.2c0,0,6.4,22.9-5.6,21.5C71.2,28.7,75.1,8.2,76.8,7.2z"/>
		<path fill="#E2E0E2" d="M106.2,7.2c0,0-6.4,22.9,5.6,21.5C111.8,28.7,107.9,8.2,106.2,7.2z"/>
		<path fill="#A5A49F" d="M51.6,177.2c0,0-4.9,5.2-3.3,10.8c0,0-1.1-1.5,5.5-0.8c0,0-3.2,2.8-1.4,8.4c0,0,1.6-1.2,8.9,0.5
			c0,0-1.5,4.1,1.4,10c0,0,2.5-2.5,8.7-2.7c0,0-3.8,2.5-3.5,5.6c0,0-0.1-1.1,2.1-0.8l6.2,4.1l9.7-13.7"/>
		<g>
			<path fill="none" stroke="#CAC7D0" stroke-miterlimit="10" d="M65.8,56.6c0,0,7.7,9.4,17.1,0"/>
			<path fill="none" stroke="#CAC7D0" stroke-miterlimit="10" d="M82.6,56.6c0,0,7.7,9.3,17.1,0"/>
			<path fill="none" stroke="#CAC7D0" stroke-miterlimit="10" d="M99.7,56.6c0,0,7.7,9.3,17.1,0"/>
			<path fill="none" stroke="#CAC7D0" stroke-miterlimit="10" d="M74.1,60.8c0,0,7.7,9.3,17.1,0"/>
			<path fill="none" stroke="#CAC7D0" stroke-miterlimit="10" d="M91.2,60.8c0,0,7.7,9.3,17.1,0"/>
			<path fill="none" stroke="#CAC7D0" stroke-miterlimit="10" d="M64.8,64.9c0,0,7.7,9.3,17.1,0"/>
			<path fill="none" stroke="#CAC7D0" stroke-miterlimit="10" d="M81.9,64.9c0,0,7.7,9.3,17.1,0"/>
			<path fill="none" stroke="#CAC7D0" stroke-miterlimit="10" d="M99.5,64.9c0,0,7.7,9.3,17.1,0"/>
			<path fill="none" stroke="#CAC7D0" stroke-miterlimit="10" d="M90.4,69.2c0,0,7.7,9.3,17.1,0"/>
			<path fill="none" stroke="#CAC7D0" stroke-miterlimit="10" d="M73.4,69.4c0,0,7.7,9.3,17.1,0"/>
			<path fill="none" stroke="#CAC7D0" stroke-miterlimit="10" d="M63.9,73.5c0,0,7.7,9.3,17.1,0"/>
			<path fill="none" stroke="#CAC7D0" stroke-miterlimit="10" d="M81.9,73.5c0,0,7.7,9.3,17.1,0"/>
			<path fill="none" stroke="#CAC7D0" stroke-miterlimit="10" d="M99.7,73.5c0,0,7.7,9.3,17.1,0"/>
			<path fill="none" stroke="#CAC7D0" stroke-miterlimit="10" d="M72.4,77.6c0,0,7.7,9.3,17.1,0"/>
			<path fill="none" stroke="#CAC7D0" stroke-miterlimit="10" d="M90.4,77.6c0,0,7.7,9.3,17.1,0"/>
		</g>
		<path fill="#4E444B" d="M51.8,127.9c0,0,16.3-48.7,7.6-53.8C52.8,70.3,51.8,127.9,51.8,127.9z"/>
		<path fill="#4E444B" d="M130.7,127.9c0,0-16.3-48.7-7.6-53.8C129.6,70.3,130.7,127.9,130.7,127.9z"/>
		<g>
			<path fill="none" stroke="#3F403F" stroke-miterlimit="10" d="M38.7,82.6c0,0,2.2,5,7.5,2.1"/>
			<path fill="none" stroke="#3F403F" stroke-miterlimit="10" d="M46,84.7c0,0,2.2,5,7.5,2.1"/>
			<path fill="none" stroke="#3F403F" stroke-miterlimit="10" d="M53.5,86.8c0,0,2.2,5,7.5,2.1"/>
			<path fill="none" stroke="#3F403F" stroke-miterlimit="10" d="M41.8,85.4c0,0,2.2,5,7.5,2.1"/>
			<path fill="none" stroke="#3F403F" stroke-miterlimit="10" d="M49.2,87.5c0,0,2.2,5,7.5,2.1"/>
			<path fill="none" stroke="#3F403F" stroke-miterlimit="10" d="M37.2,86c0,0,2.2,5,7.5,2.1"/>
			<path fill="none" stroke="#3F403F" stroke-miterlimit="10" d="M44.7,88.1c0,0,2.2,5,7.5,2.1"/>
			<path fill="none" stroke="#3F403F" stroke-miterlimit="10" d="M52.4,90.3c0,0,2.2,5,7.5,2.1"/>
			<path fill="none" stroke="#3F403F" stroke-miterlimit="10" d="M47.9,91.1c0,0,2.2,5,7.5,2.1"/>
			<path fill="none" stroke="#3F403F" stroke-miterlimit="10" d="M40.4,89c0,0,2.2,5,7.5,2.1"/>
			<path fill="none" stroke="#3F403F" stroke-miterlimit="10" d="M35.8,89.6c0,0,2.2,5,7.5,2.1"/>
			<path fill="none" stroke="#3F403F" stroke-miterlimit="10" d="M43.6,91.9c0,0,2.2,5,7.5,2.1"/>
			<path fill="none" stroke="#3F403F" stroke-miterlimit="10" d="M51.4,94.1c0,0,2.2,5,7.5,2.1"/>
			<path fill="none" stroke="#3F403F" stroke-miterlimit="10" d="M39,92.5c0,0,2.2,5,7.5,2.1"/>
			<path fill="none" stroke="#3F403F" stroke-miterlimit="10" d="M46.9,94.7c0,0,2.2,5,7.5,2.1"/>
		</g>
		<g>
			<path fill="none" stroke="#3F403F" stroke-miterlimit="10" d="M143.9,82.9c0,0-2.2,5-7.5,2.1"/>
			<path fill="none" stroke="#3F403F" stroke-miterlimit="10" d="M136.5,85c0,0-2.2,5-7.5,2.1"/>
			<path fill="none" stroke="#3F403F" stroke-miterlimit="10" d="M129.1,87.1c0,0-2.2,5-7.5,2.1"/>
			<path fill="none" stroke="#3F403F" stroke-miterlimit="10" d="M140.8,85.8c0,0-2.2,5-7.5,2.1"/>
			<path fill="none" stroke="#3F403F" stroke-miterlimit="10" d="M133.3,87.9c0,0-2.2,5-7.5,2.1"/>
			<path fill="none" stroke="#3F403F" stroke-miterlimit="10" d="M145.3,86.4c0,0-2.2,5-7.5,2.1"/>
			<path fill="none" stroke="#3F403F" stroke-miterlimit="10" d="M137.9,88.5c0,0-2.2,5-7.5,2.1"/>
			<path fill="none" stroke="#3F403F" stroke-miterlimit="10" d="M130.2,90.7c0,0-2.2,5-7.5,2.1"/>
			<path fill="none" stroke="#3F403F" stroke-miterlimit="10" d="M134.7,91.4c0,0-2.2,5-7.5,2.1"/>
			<path fill="none" stroke="#3F403F" stroke-miterlimit="10" d="M142.1,89.4c0,0-2.2,5-7.5,2.1"/>
			<path fill="none" stroke="#3F403F" stroke-miterlimit="10" d="M146.8,90c0,0-2.2,5-7.5,2.1"/>
			<path fill="none" stroke="#3F403F" stroke-miterlimit="10" d="M138.9,92.2c0,0-2.2,5-7.5,2.1"/>
			<path fill="none" stroke="#3F403F" stroke-miterlimit="10" d="M131.1,94.4c0,0-2.2,5-7.5,2.1"/>
			<path fill="none" stroke="#3F403F" stroke-miterlimit="10" d="M143.6,92.8c0,0-2.2,5-7.5,2.1"/>
			<path fill="none" stroke="#3F403F" stroke-miterlimit="10" d="M135.7,95.1c0,0-2.2,5-7.5,2.1"/>
		</g>
		<path fill="#3F403F" d="M56.7,99.5c0,0-17.1,37.4-13.1,91.6"/>
		<path fill="#3F403F" d="M49.2,98c0,0-12.9,45.3-10.6,69.9"/>
		<path fill="#3F403F" d="M41.8,94.4c-2.8-1.9-7.8,13.8-8.5,50.9"/>
		<path fill="#3F403F" d="M124.4,97.1c0,0,17.1,37.4,13.1,91.6"/>
		<path fill="#3F403F" d="M131.9,95.6c0,0,12.9,45.3,10.6,69.9"/>
		<path fill="#3F403F" d="M139.3,92c2.8-1.9,7.8,13.8,8.5,50.9"/>
		<path fill="#4E444B" d="M66,277.7h-3.8c-1.9,0-3.5-1.6-3.5-3.5V247c0-1.9,1.6-3.5,3.5-3.5H66c1.9,0,3.5,1.6,3.5,3.5v27.2
			C69.5,276.1,67.9,277.7,66,277.7z"/>
		<path fill="#3F403F" d="M68.6,282.8H66c-1.3,0-2.4-1.1-2.4-2.4V251c0-1.3,1.1-2.4,2.4-2.4h2.6c1.3,0,2.4,1.1,2.4,2.4v29.4
			C71,281.8,69.9,282.8,68.6,282.8z"/>
		<path fill="#3F403F" d="M62,282.8h-2.6c-1.3,0-2.4-1.1-2.4-2.4V251c0-1.3,1.1-2.4,2.4-2.4H62c1.3,0,2.4,1.1,2.4,2.4v29.4
			C64.4,281.8,63.3,282.8,62,282.8z"/>
		<path fill="#4E444B" d="M120.6,278.3h-3.8c-1.9,0-3.5-1.6-3.5-3.5v-27.2c0-1.9,1.6-3.5,3.5-3.5h3.8c1.9,0,3.5,1.6,3.5,3.5v27.2
			C124.1,276.8,122.5,278.3,120.6,278.3z"/>
		<path fill="#3F403F" d="M123.2,283.5h-2.6c-1.3,0-2.4-1.1-2.4-2.4v-29.4c0-1.3,1.1-2.4,2.4-2.4h2.6c1.3,0,2.4,1.1,2.4,2.4v29.4
			C125.6,282.4,124.5,283.5,123.2,283.5z"/>
		<path fill="#A5A49F" d="M131.5,173.3c0,0,4.9,5.2,3.3,10.8c0,0,1.1-1.5-5.5-0.8c0,0,3.2,2.8,1.4,8.4c0,0-1.6-1.2-8.9,0.5
			c0,0,1.5,4.1-1.4,10c0,0-2.5-2.5-8.7-2.7c0,0,3.8,2.5,3.5,5.6c0,0,0.1-1.1-2.1-0.8l-6.2,4.1l-9.7-13.7"/>
		<path fill="#3F403F" d="M116.6,283.5H114c-1.3,0-2.4-1.1-2.4-2.4v-29.4c0-1.3,1.1-2.4,2.4-2.4h2.6c1.3,0,2.4,1.1,2.4,2.4v29.4
			C119,282.4,117.9,283.5,116.6,283.5z"/>
		<g>
			<path fill="none" stroke="#CAC7D0" stroke-miterlimit="10" d="M64.9,118c0,0,7.7,9.4,17.1,0"/>
			<path fill="none" stroke="#CAC7D0" stroke-miterlimit="10" d="M81.7,118c0,0,7.7,9.3,17.1,0"/>
			<path fill="none" stroke="#CAC7D0" stroke-miterlimit="10" d="M98.8,118c0,0,7.7,9.3,17.1,0"/>
			<path fill="none" stroke="#CAC7D0" stroke-miterlimit="10" d="M73.2,122.2c0,0,7.7,9.3,17.1,0"/>
			<path fill="none" stroke="#CAC7D0" stroke-miterlimit="10" d="M90.2,122.2c0,0,7.7,9.3,17.1,0"/>
			<path fill="none" stroke="#CAC7D0" stroke-miterlimit="10" d="M63.9,126.3c0,0,7.7,9.3,17.1,0"/>
			<path fill="none" stroke="#CAC7D0" stroke-miterlimit="10" d="M81,126.3c0,0,7.7,9.3,17.1,0"/>
			<path fill="none" stroke="#CAC7D0" stroke-miterlimit="10" d="M98.6,126.3c0,0,7.7,9.3,17.1,0"/>
			<path fill="none" stroke="#CAC7D0" stroke-miterlimit="10" d="M89.5,130.6c0,0,7.7,9.3,17.1,0"/>
			<path fill="none" stroke="#CAC7D0" stroke-miterlimit="10" d="M72.5,130.8c0,0,7.7,9.3,17.1,0"/>
			<path fill="none" stroke="#CAC7D0" stroke-miterlimit="10" d="M63,134.9c0,0,7.7,9.3,17.1,0"/>
			<path fill="none" stroke="#CAC7D0" stroke-miterlimit="10" d="M81,134.9c0,0,7.7,9.3,17.1,0"/>
			<path fill="none" stroke="#CAC7D0" stroke-miterlimit="10" d="M98.8,134.9c0,0,7.7,9.3,17.1,0"/>
			<path fill="none" stroke="#CAC7D0" stroke-miterlimit="10" d="M71.5,139c0,0,7.7,9.3,17.1,0"/>
			<path fill="none" stroke="#CAC7D0" stroke-miterlimit="10" d="M89.5,139c0,0,7.7,9.3,17.1,0"/>
		</g>
		<g>
			<path fill="none" stroke="#CAC7D0" stroke-miterlimit="10" d="M66,182.8c0,0,7.7,9.4,17.1,0"/>
			<path fill="none" stroke="#CAC7D0" stroke-miterlimit="10" d="M82.7,182.8c0,0,7.7,9.3,17.1,0"/>
			<path fill="none" stroke="#CAC7D0" stroke-miterlimit="10" d="M99.8,182.8c0,0,7.7,9.3,17.1,0"/>
			<path fill="none" stroke="#CAC7D0" stroke-miterlimit="10" d="M74.2,187c0,0,7.7,9.3,17.1,0"/>
			<path fill="none" stroke="#CAC7D0" stroke-miterlimit="10" d="M91.3,187c0,0,7.7,9.3,17.1,0"/>
			<path fill="none" stroke="#CAC7D0" stroke-miterlimit="10" d="M65,191.1c0,0,7.7,9.3,17.1,0"/>
			<path fill="none" stroke="#CAC7D0" stroke-miterlimit="10" d="M82,191.1c0,0,7.7,9.3,17.1,0"/>
			<path fill="none" stroke="#CAC7D0" stroke-miterlimit="10" d="M99.6,191.1c0,0,7.7,9.3,17.1,0"/>
			<path fill="none" stroke="#CAC7D0" stroke-miterlimit="10" d="M90.5,195.4c0,0,7.7,9.3,17.1,0"/>
			<path fill="none" stroke="#CAC7D0" stroke-miterlimit="10" d="M73.5,195.6c0,0,7.7,9.3,17.1,0"/>
			<path fill="none" stroke="#CAC7D0" stroke-miterlimit="10" d="M64,199.7c0,0,7.7,9.3,17.1,0"/>
			<path fill="none" stroke="#CAC7D0" stroke-miterlimit="10" d="M82,199.7c0,0,7.7,9.3,17.1,0"/>
			<path fill="none" stroke="#CAC7D0" stroke-miterlimit="10" d="M99.8,199.7c0,0,7.7,9.3,17.1,0"/>
			<path fill="none" stroke="#CAC7D0" stroke-miterlimit="10" d="M72.5,203.8c0,0,7.7,9.3,17.1,0"/>
			<path fill="none" stroke="#CAC7D0" stroke-miterlimit="10" d="M90.5,203.8c0,0,7.7,9.3,17.1,0"/>
		</g>
	</g>
</g>
</svg>
