<?xml version="1.0" encoding="utf-8"?>
<!-- Generator: Adobe Illustrator 18.0.0, SVG Export Plug-In . SVG Version: 6.00 Build 0)  -->
<!DOCTYPE svg PUBLIC "-//W3C//DTD SVG 1.1//EN" "http://www.w3.org/Graphics/SVG/1.1/DTD/svg11.dtd">
<svg version="1.1" id="Layer_1" xmlns="http://www.w3.org/2000/svg" xmlns:xlink="http://www.w3.org/1999/xlink" x="0px" y="0px"
	 viewBox="0 0 160.2 260.4" enable-background="new 0 0 160.2 260.4" xml:space="preserve">
<g id="Sad">
	<path fill="#F8F8EC" d="M152.6,128.1C161.4,98.8,166.1,0.6,146.2,0C127-0.6,91,76.5,91,76.5c-6.4,5.2-9.3,6.4-12.4,10.3
		c-3.1-4-6-5.1-12.4-10.3c0,0-26.8-77.1-46-76.5C0.4,0.6-4.1,98.8,4.7,128.1c0,0-15.1,62.2,8.8,101.3c10.9,17.8,29.8,30.8,61.8,31
		c32-0.2,51.6-13.2,63.3-31C164.5,190.3,152.6,128.1,152.6,128.1z"/>
	<g>
		<path fill="#EFEFE1" d="M21.4,155.2c0,0-9.3,26.4,12.2,39.8c21.5,13.4,24.6,54.9,44.8,52.2V96C78.4,96,32.4,99.9,21.4,155.2z"/>
		<path fill="#EFEFE1" d="M135.5,155.2C124.5,99.9,78.5,96,78.5,96v151.2c20.2,2.7,23.3-38.8,44.8-52.2
			C144.9,181.6,135.5,155.2,135.5,155.2z"/>
	</g>
	<ellipse fill="#010101" cx="78.6" cy="217.4" rx="14.6" ry="12"/>
	<path fill="none" stroke="#010101" stroke-width="3" stroke-miterlimit="10" d="M42.9,183.2"/>
	<path fill="#010101" d="M114.1,156.5c0,4.1-3.4,7.5-7.6,7.5s-7.6-3.4-7.6-7.5c0-4.1,3.9-9.5,7.6-7.5
		C110.6,151.2,114.1,156.5,114.1,156.5z"/>
	<path fill="#010101" d="M64.1,236c0,0,14.6-12.6,29.1,0"/>
	<path fill="#BB978A" d="M16.5,110.6c0,0,15.3-34.5,36.4-34.5c0,0-11.7-64.8-28.5-70.1S3.8,103.7,16.5,110.6z"/>
	<path fill="#BB978A" d="M141.5,108.5c0,0-15.3-34.5-36.4-34.5c0,0,22.4-65.7,39.2-71S154.1,101.6,141.5,108.5z"/>
	<path fill="#F8F8EC" d="M103.3,76.8c0,0,19.8-57.5,30.8-64.2c0,0-26.3,55.4-27.5,58.4c0,0,20.1-41.4,25.9-43.4
		c0,0-17.2,36.6-18.3,41.6c0,0,12.7-16.2,19.6-17.8c0,0-18,15.9-15,21.7c0,0,17.1-13.4,23.6-13.4c0,0-14.6,5.3-12.6,14.6
		c0,0,9.8-4.4,15.9-5.5c0,0-15.7,6.2-14.2,11.7c0,0,7.6-3.8,9.5-1.8c0,0-11.4,6-8.4,12.7c0,0,3.3-3.8,8.5-2.8
		c0.1-0.1-7.4,7.6-6.3,13.2c0,0,3.5-5.2,9.5-5.9c0,0-8.8,6.6-6.6,11"/>
	<path fill="#F8F8EC" d="M54.3,74.7c0,0-14.3-56-25.2-62.7c0,0,20.8,53.8,22,56.9c0,0-15.8-43.6-21.6-45.5c0,0,12.9,38.8,14,43.8
		c0,0-10.7-24.1-16.8-28.8c0,0,13.7,27.9,12.3,32.7c0,0-1.9-8-8.1-11.8c0,0,7.3,9.3,5.3,18.5c0,0-2.5-4-7.5-6.7
		c0,0,3.7,5.6,2.1,11.1c0,0-5.2-3.4-8.9-2.8c0,0,6.2,3.4,3.2,10.1c0,0-4.6-0.2-9.8,0.8c-0.1-0.1,8.7,4,7.6,9.6c0,0-0.2-2.2-6.1-2.9
		c0,0,5.4,3.6,3.2,7.9"/>
	<circle fill="#F8F8EC" cx="43.9" cy="154.3" r="1"/>
	<circle fill="#F8F8EC" cx="103.3" cy="154.3" r="1"/>
	<path fill="#FFFFFF" d="M73,209.9c0,0,5.6-4.9,11.3,0"/>
	<path fill="#010101" d="M39.2,156.7c0,4.1,3.4,7.5,7.6,7.5s7.6-3.4,7.6-7.5c0-4.1-3.9-9.5-7.6-7.5
		C42.7,151.4,39.2,156.7,39.2,156.7z"/>
	<circle fill="#F8F8EC" cx="44.9" cy="154.3" r="1"/>
</g>
</svg>
