<?xml version="1.0" encoding="utf-8"?>
<!-- Generator: Adobe Illustrator 18.0.0, SVG Export Plug-In . SVG Version: 6.00 Build 0)  -->
<!DOCTYPE svg PUBLIC "-//W3C//DTD SVG 1.1//EN" "http://www.w3.org/Graphics/SVG/1.1/DTD/svg11.dtd">
<svg version="1.1" id="Layer_1" xmlns="http://www.w3.org/2000/svg" xmlns:xlink="http://www.w3.org/1999/xlink" x="0px" y="0px"
	 viewBox="0 0 252.9 324.2" enable-background="new 0 0 252.9 324.2" xml:space="preserve">
<path fill="#EFEFE1" d="M186.6,216c0,0,82.4-25,19.4,79.9c0,0,54.3,5.5,46.1,16.9c-8.2,11.3-37.5,4.7-48.4,3
	c-11-1.7-44.6-7.4-44.6-7.4L186.6,216z"/>
<path fill="#EFEFE1" d="M67.3,216c0,0-82.4-25-19.4,79.9c0,0-54.3,5.5-46.1,16.9c8.2,11.3,37.5,4.7,48.4,3s44.6-7.4,44.6-7.4
	L67.3,216z"/>
<path fill="#EFEFE1" d="M199.2,70.4c-2.6-63-30.9-70.4-72-70.4S53.9,7.7,50.6,70.4c-9.6,178,33.3,231.8,74.3,231.8
	S205.6,226.5,199.2,70.4z"/>
<polygon fill="#F8F8EC" points="54.5,115.7 97.3,132.2 110,302.7 84,304.6 "/>
<polygon fill="#F8F8EC" points="155.1,135.8 189.7,119.3 167.7,305 142,303 "/>
<path fill="none" stroke="#EFEFE1" stroke-width="3" stroke-miterlimit="10" d="M202.1,105.8c0,0,0,4.5-11-12.4c0,0,4.1,18.6-3,29.2
	c0,0,3-1.9-7.1-9.6c0,0,2,10.9-5.4,21c0,0-1.2-5.1-13-11.4c0,0-1.5,11.5-10.8,20.7c0,0-1.4-9.1-9.9-18.5c0,0,3,11.1,0,17.8
	c0,0,1.1-2.3-2.2-4.8c0,0-0.5,9.8-14.3,18.2h0.6c-13.9-8.4-14.3-18.2-14.3-18.2c-3.2,2.4-2.2,4.8-2.2,4.8c-3-6.7,0-17.8,0-17.8
	c-8.5,9.3-9.9,18.5-9.9,18.5c-9.3-9.2-10.8-20.7-10.8-20.7c-11.8,6.3-13,11.4-13,11.4c-7.4-10.2-5.4-21-5.4-21
	c-10.1,7.7-7.1,9.6-7.1,9.6c-7.1-10.6-4.9-29.2-4.9-29.2c-11,16.9-9.3,12-9.3,12"/>
<path fill="#F8F8EC" d="M186.3,17.9c0,0,25.6,47.5,17.9,91.5c0,0-2,1-13.1-16c0,0,4.1,18.6-3,29.2c0,0,3-1.9-7.1-9.6
	c0,0,2,10.9-5.4,21c0,0-1.2-5.1-13-11.4c0,0-1.5,11.5-10.8,20.7c0,0-1.4-9.1-9.9-18.5c0,0,3,11.1,0,17.8c0,0,1.1-2.3-2.2-4.8
	c0,0-0.5,9.8-14.3,18.2h0.6c-13.9-8.4-14.3-18.2-14.3-18.2c-3.2,2.4-2.2,4.8-2.2,4.8c-3-6.7,0-17.8,0-17.8
	c-8.5,9.3-9.9,18.5-9.9,18.5c-9.3-9.2-10.8-20.7-10.8-20.7c-11.8,6.3-13,11.4-13,11.4c-7.4-10.2-5.4-21-5.4-21
	c-10.1,7.7-7.1,9.6-7.1,9.6c-7.1-10.6-4.9-29.2-4.9-29.2c-11,16.9-11.4,16-11.4,16c-7.7-44,14.5-89.2,14.5-89.2"/>
<path fill="#F8F8EC" d="M193.5,310.7c-9.4,24.2-15.8-1.4-15.8-1.4s-3.1,14-12,14c-9.4,0-12.5-14.5-12.5-14.5s-3.7,23.9-14.8,3.3
	c-5.6-10.5,5.6-21.1,27.2-21.1S197.8,299.6,193.5,310.7z"/>
<path fill="#F8F8EC" d="M115,311.7c-9.4,24.2-15.8-1.4-15.8-1.4s-3.1,14-12,14c-9.4,0-12.5-14.5-12.5-14.5s-3.7,23.9-14.8,3.3
	c-5.6-10.5,5.6-21.1,27.2-21.1S119.3,300.6,115,311.7z"/>
<path fill="none" stroke="#EFEFE1" stroke-miterlimit="10" d="M186.6,20.9c0,0,2.1,12-4.4,18.6c0,0,2.7-1.2-6.4-5.9
	c0,0-2.1,7.7-8.8,14c0,0,2.9-4.2-7.8-8.1c0,0-1.4,7.1-9.8,12.8c0,0-1.3-2.5-9-8.3c0,0,2.8,3.7,0,7.9c0,0,1-1.4-2-3
	c0,0-0.2,6.1-12.8,11.3l0,0c-12.6-5.2-12.7-11.3-12.7-11.3c-2.9,1.5-2,3-2,3c-2.8-4.2,0-7.9,0-7.9c-7.7,5.8-9,8.3-9,8.3
	c-8.4-5.7-9.8-12.8-9.8-12.8c-10.7,3.9-9.9,7-9.9,7c-6.7-6.3-6.7-12.9-6.7-12.9c-9.1,4.8-6.4,5.9-6.4,5.9
	c-6.4-6.6-7.7-18.6-7.7-18.6"/>
</svg>
