<?xml version="1.0" encoding="utf-8"?>
<!-- Generator: Adobe Illustrator 18.0.0, SVG Export Plug-In . SVG Version: 6.00 Build 0)  -->
<!DOCTYPE svg PUBLIC "-//W3C//DTD SVG 1.1//EN" "http://www.w3.org/Graphics/SVG/1.1/DTD/svg11.dtd">
<svg version="1.1" id="Layer_1" xmlns="http://www.w3.org/2000/svg" xmlns:xlink="http://www.w3.org/1999/xlink" x="0px" y="0px"
	 viewBox="0 0 251.9 533.7" enable-background="new 0 0 251.9 533.7" xml:space="preserve">
<path fill="#EFEFE1" d="M185.6,425.4c0,0,82.4-25,19.4,79.9c0,0,54.3,5.5,46.1,16.9c-8.2,11.3-37.5,4.7-48.4,3
	c-11-1.7-44.6-7.4-44.6-7.4L185.6,425.4z"/>
<path fill="#EFEFE1" d="M66.3,425.4c0,0-82.4-25-19.4,79.9c0,0-54.3,5.5-46.1,16.9c8.2,11.3,37.5,4.7,48.4,3s44.6-7.4,44.6-7.4
	L66.3,425.4z"/>
<path fill="#EFEFE1" d="M198.2,279.9c-2.6-63-30.9-70.4-72-70.4s-73.3,7.7-76.7,70.4c-9.6,178,33.3,231.8,74.3,231.8
	S204.6,435.9,198.2,279.9z"/>
<polygon fill="#F8F8EC" points="53.5,325.2 96.3,341.6 109,512.1 83,514.1 "/>
<polygon fill="#F8F8EC" points="154.1,345.3 188.7,328.8 166.7,514.5 141,512.5 "/>
<path fill="none" stroke="#EFEFE1" stroke-width="3" stroke-miterlimit="10" d="M201.1,315.3c0,0,0,4.5-11-12.4c0,0,4.1,18.6-3,29.2
	c0,0,3-1.9-7.1-9.6c0,0,2,10.9-5.4,21c0,0-1.2-5.1-13-11.4c0,0-1.5,11.5-10.8,20.7c0,0-1.4-9.1-9.9-18.5c0,0,3,11.1,0,17.8
	c0,0,1.1-2.3-2.2-4.8c0,0-0.5,9.8-14.3,18.2h0.6c-13.9-8.4-14.3-18.2-14.3-18.2c-3.2,2.4-2.2,4.8-2.2,4.8c-3-6.7,0-17.8,0-17.8
	c-8.5,9.3-9.9,18.5-9.9,18.5c-9.3-9.2-10.8-20.7-10.8-20.7c-11.8,6.3-13,11.4-13,11.4c-7.4-10.2-5.4-21-5.4-21
	c-10.1,7.7-7.1,9.6-7.1,9.6c-7.1-10.6-4.9-29.2-4.9-29.2c-11,16.9-9.3,12-9.3,12"/>
<path fill="#F8F8EC" d="M185.3,227.4c0,0,25.6,47.5,17.9,91.5c0,0-2,1-13.1-16c0,0,4.1,18.6-3,29.2c0,0,3-1.9-7.1-9.6
	c0,0,2,10.9-5.4,21c0,0-1.2-5.1-13-11.4c0,0-1.5,11.5-10.8,20.7c0,0-1.4-9.1-9.9-18.5c0,0,3,11.1,0,17.8c0,0,1.1-2.3-2.2-4.8
	c0,0-0.5,9.8-14.3,18.2h0.6c-13.9-8.4-14.3-18.2-14.3-18.2c-3.2,2.4-2.2,4.8-2.2,4.8c-3-6.7,0-17.8,0-17.8
	c-8.5,9.3-9.9,18.5-9.9,18.5c-9.3-9.2-10.8-20.7-10.8-20.7c-11.8,6.3-13,11.4-13,11.4c-7.4-10.2-5.4-21-5.4-21
	c-10.1,7.7-7.1,9.6-7.1,9.6c-7.1-10.6-4.9-29.2-4.9-29.2c-11,16.9-11.4,16-11.4,16c-7.7-44,14.5-89.2,14.5-89.2"/>
<path fill="#F8F8EC" d="M192.5,520.1c-9.4,24.2-15.8-1.4-15.8-1.4s-3.1,14-12,14c-9.4,0-12.5-14.5-12.5-14.5s-3.7,23.9-14.8,3.3
	c-5.6-10.5,5.6-21.1,27.2-21.1S196.8,509,192.5,520.1z"/>
<path fill="#F8F8EC" d="M114,521.1c-9.4,24.2-15.8-1.4-15.8-1.4s-3.1,14-12,14c-9.4,0-12.5-14.5-12.5-14.5s-3.7,23.9-14.8,3.3
	c-5.6-10.5,5.6-21.1,27.2-21.1S118.3,510,114,521.1z"/>
<path fill="none" stroke="#EFEFE1" stroke-miterlimit="10" d="M185.6,230.3c0,0,2.1,12-4.4,18.6c0,0,2.7-1.2-6.4-5.9
	c0,0-2.1,7.7-8.8,14c0,0,2.9-4.2-7.8-8.1c0,0-1.4,7.1-9.8,12.8c0,0-1.3-2.5-9-8.3c0,0,2.8,3.7,0,7.9c0,0,1-1.4-2-3
	c0,0-0.2,6.1-12.8,11.3l0,0c-12.6-5.2-12.7-11.3-12.7-11.3c-2.9,1.5-2,3-2,3c-2.8-4.2,0-7.9,0-7.9c-7.7,5.8-9,8.3-9,8.3
	c-8.4-5.7-9.8-12.8-9.8-12.8c-10.7,3.9-9.9,7-9.9,7c-6.7-6.3-6.7-12.9-6.7-12.9c-9.1,4.8-6.4,5.9-6.4,5.9
	c-6.4-6.6-7.7-18.6-7.7-18.6"/>
<g>
	<path fill="#F8F8EC" d="M199.5,128.1C208.3,98.8,213.1,0.6,193.2,0C174-0.6,138,76.5,138,76.5c-6.4,5.2-9.3,6.4-12.4,10.3
		c-3.1-4-6-5.1-12.4-10.3c0,0-26.8-77.1-46-76.5C47.3,0.6,42.8,98.8,51.7,128.1c0,0-15.1,62.2,8.8,101.3
		c10.9,17.8,29.8,30.8,61.8,31c32-0.2,51.6-13.2,63.3-31C211.4,190.3,199.5,128.1,199.5,128.1z"/>
	<g>
		<path fill="#EFEFE1" d="M68.3,155.2c0,0-9.3,26.4,12.2,39.8c21.5,13.4,24.6,54.9,44.8,52.2V96C125.4,96,79.4,99.9,68.3,155.2z"/>
		<path fill="#EFEFE1" d="M182.5,155.2C171.4,99.9,125.4,96,125.4,96v151.2c20.2,2.7,23.3-38.8,44.8-52.2
			C191.8,181.6,182.5,155.2,182.5,155.2z"/>
	</g>
	<ellipse fill="#010101" cx="125.5" cy="217.4" rx="14.6" ry="12"/>
	<path fill="none" stroke="#010101" stroke-width="3" stroke-miterlimit="10" d="M89.9,183.2"/>
	<path fill="none" stroke="#010101" stroke-width="3" stroke-miterlimit="10" d="M125.5,211.5"/>
	<ellipse fill="#010101" cx="93.7" cy="156.5" rx="7.6" ry="7.5"/>
	<ellipse fill="#010101" cx="153.5" cy="156.5" rx="7.6" ry="7.5"/>
	<path fill="#010101" d="M111,233.2c0,0,14.6,12.6,29.1,0"/>
	<path fill="#BB978A" d="M63.4,110.6c0,0,15.3-34.5,36.4-34.5c0,0-11.7-64.8-28.5-70.1S50.8,103.7,63.4,110.6z"/>
	<path fill="#BB978A" d="M188.4,108.5c0,0-15.3-34.5-36.4-34.5c0,0,22.4-65.7,39.2-71S201,101.6,188.4,108.5z"/>
	<path fill="#F8F8EC" d="M150.2,76.8c0,0,19.8-57.5,30.8-64.2c0,0-26.3,55.4-27.5,58.4c0,0,20.1-41.4,25.9-43.4
		c0,0-17.2,36.6-18.3,41.6c0,0,12.7-16.2,19.6-17.8c0,0-18,15.9-15,21.7c0,0,17.1-13.4,23.6-13.4c0,0-14.6,5.3-12.6,14.6
		c0,0,9.8-4.4,15.9-5.5c0,0-15.7,6.2-14.2,11.7c0,0,7.6-3.8,9.5-1.8c0,0-11.4,6-8.4,12.7c0,0,3.3-3.8,8.5-2.8
		c0.1-0.1-7.4,7.6-6.3,13.2c0,0,3.5-5.2,9.5-5.9c0,0-8.8,6.6-6.6,11"/>
	<path fill="#F8F8EC" d="M101.3,74.7c0,0-14.3-56-25.2-62.7c0,0,20.8,53.8,22,56.9c0,0-15.8-43.6-21.6-45.5c0,0,12.9,38.8,14,43.8
		c0,0-10.7-24.1-16.8-28.8c0,0,13.7,27.9,12.3,32.7c0,0-1.9-8-8.1-11.8c0,0,7.3,9.3,5.3,18.5c0,0-2.5-4-7.5-6.7
		c0,0,3.7,5.6,2.1,11.1c0,0-5.2-3.4-8.9-2.8c0,0,6.2,3.4,3.2,10.1c0,0-4.6-0.2-9.8,0.8c-0.1-0.1,8.7,4,7.6,9.6c0,0-0.2-2.2-6.1-2.9
		c0,0,5.4,3.6,3.2,7.9"/>
	<circle fill="#F8F8EC" cx="90.9" cy="154.3" r="1"/>
	<circle fill="#F8F8EC" cx="150.2" cy="154.3" r="1"/>
	<path fill="#FFFFFF" d="M119.9,209.9c0,0,5.6-4.9,11.3,0"/>
</g>
</svg>
